<svg width="225" height="129" xmlns="http://www.w3.org/2000/svg"><g id="Welcome" stroke="none" stroke-width="1" fill="none" fill-rule="evenodd"><g id="Dimensions---Landing-Page" transform="translate(-731 -16226)" fill="#FFF"><g id="Footer" transform="translate(0 16108)"><g id="DDD-Dimensions-Education-blk" transform="translate(731 118)"><path d="M9.359 94.762c.637-.325 1.057-.816 1.26-1.475.204-.658.306-1.587.306-2.787 0-1.233-.102-2.175-.305-2.825-.204-.65-.62-1.133-1.249-1.45-.628-.316-1.595-.475-2.903-.475H4.075v9.5h2.393c1.29 0 2.254-.163 2.891-.488ZM15 90.5c0 5.666-2.844 8.5-8.532 8.5H0V82h6.468C12.156 82 15 84.834 15 90.5Z" id="Fill-1"/><path id="Fill-2" d="M24 99h4V82h-4z"/><path id="Fill-3" d="M59 82v17h-4.03v-8.125h-.403l-3.753 6.974h-3.628l-3.753-6.974h-.403V99H39V82h4.03l5.768 10.775h.404L54.97 82H59"/><path id="Fill-4" d="M75.192 85.75v2.875h6.236v3.75h-6.236v2.874H83V99H71V82h12v3.75h-7.808"/><path id="Fill-5" d="M108 82v17h-4l-6.6-9.7H97V99h-4V82h4l6.6 9.7h.4V82h4"/><path d="M120 92.978c1.109.743 2.405 1.327 3.886 1.748 1.482.42 2.819.631 4.012.631 1.158 0 1.97-.09 2.433-.267.463-.177.695-.534.695-1.07 0-.338-.132-.614-.398-.825-.264-.21-.694-.403-1.29-.582-.596-.178-1.557-.413-2.881-.704-1.49-.324-2.675-.676-3.552-1.057-.877-.38-1.54-.862-1.987-1.445-.446-.582-.67-1.335-.67-2.258 0-1.765.592-3.064 1.776-3.898 1.183-.834 2.843-1.251 4.979-1.251 1.027 0 2.189.134 3.49.401 1.3.267 2.354.595 3.166.984v3.69a24.856 24.856 0 0 0-3.763-1.043c-1.316-.26-2.388-.389-3.216-.389-.778 0-1.383.069-1.813.207-.43.137-.646.44-.646.91 0 .405.257.713.77.923.514.21 1.408.461 2.682.753 1.97.437 3.419.814 4.346 1.13.928.315 1.656.78 2.186 1.396.53.615.795 1.49.795 2.622 0 1.83-.655 3.19-1.962 4.08-1.308.89-3.022 1.336-5.14 1.336-1.26 0-2.688-.206-4.285-.62-1.598-.412-2.802-.926-3.613-1.541v-3.861" id="Fill-6"/><path id="Fill-7" d="M145 99h4V82h-4z"/><path d="M170.024 94.192c.747-.778 1.12-2.008 1.12-3.692 0-1.684-.373-2.914-1.12-3.692-.748-.776-1.755-1.165-3.024-1.165-1.27 0-2.277.389-3.024 1.165-.747.778-1.12 2.008-1.12 3.692 0 1.684.373 2.914 1.12 3.692.747.776 1.755 1.165 3.024 1.165 1.269 0 2.276-.389 3.024-1.165Zm-7.29 3.703a7.31 7.31 0 0 1-2.77-3.035c-.643-1.287-.964-2.74-.964-4.36 0-1.619.32-3.072.963-4.359a7.308 7.308 0 0 1 2.772-3.036C163.94 82.37 165.362 82 167 82s3.06.369 4.265 1.105a7.306 7.306 0 0 1 2.771 3.036c.642 1.287.964 2.74.964 4.36 0 1.618-.322 3.072-.964 4.359a7.308 7.308 0 0 1-2.77 3.035C170.06 98.632 168.637 99 167 99s-3.06-.368-4.265-1.105Z" id="Fill-8"/><path id="Fill-9" d="M200 82v17h-4l-6.6-9.7h-.4V99h-4V82h4l6.6 9.7h.4V82h4"/><path d="M210 92.978c1.109.743 2.405 1.327 3.886 1.748 1.482.42 2.819.631 4.012.631 1.158 0 1.97-.09 2.433-.267.463-.177.695-.534.695-1.07 0-.338-.132-.614-.398-.825-.264-.21-.694-.403-1.29-.582-.596-.178-1.557-.413-2.881-.704-1.491-.324-2.675-.676-3.552-1.057-.878-.38-1.54-.862-1.987-1.445-.446-.582-.67-1.335-.67-2.258 0-1.765.592-3.064 1.775-3.898 1.184-.834 2.844-1.251 4.98-1.251 1.026 0 2.189.134 3.49.401 1.3.267 2.354.595 3.166.984v3.69a24.885 24.885 0 0 0-3.763-1.043c-1.316-.26-2.389-.389-3.217-.389-.778 0-1.382.069-1.812.207-.43.137-.646.44-.646.91 0 .405.257.713.77.923.514.21 1.408.461 2.682.753 1.97.437 3.419.814 4.346 1.13.928.315 1.656.78 2.186 1.396.53.615.795 1.49.795 2.622 0 1.83-.655 3.19-1.962 4.08-1.308.89-3.022 1.336-5.14 1.336-1.26 0-2.688-.206-4.285-.62-1.598-.412-2.802-.926-3.613-1.541v-3.861" id="Fill-10"/><path id="Fill-11" d="M18.192 115.75v2.875h6.236v3.75h-6.236v2.875H26V129H14v-17h12v3.75h-7.808"/><path d="M46.36 124.763c.636-.325 1.056-.817 1.26-1.476.203-.657.305-1.587.305-2.787 0-1.232-.102-2.174-.305-2.825-.204-.65-.62-1.132-1.248-1.449-.628-.317-1.596-.476-2.903-.476h-2.394v9.5h2.394c1.29 0 2.253-.163 2.89-.487ZM52 120.5c0 5.667-2.844 8.5-8.531 8.5H37v-17h6.469c5.687 0 8.531 2.833 8.531 8.5Z" id="Fill-12"/><path d="M72.952 127.374C71.587 128.458 69.77 129 67.5 129s-4.087-.542-5.452-1.626c-1.366-1.084-2.048-2.677-2.048-4.78V112h3.947v9.61c0 .87.1 1.568.296 2.093.198.525.551.924 1.061 1.194.51.271 1.242.407 2.196.407.954 0 1.686-.136 2.196-.407.51-.27.863-.669 1.06-1.194.198-.525.297-1.223.297-2.093V112H75v10.594c0 2.103-.683 3.696-2.048 4.78" id="Fill-13"/><path d="M84.788 116.25a6.762 6.762 0 0 1 2.5-3.085c1.141-.777 2.607-1.165 4.397-1.165 1.56 0 2.877.283 3.953.85 1.075.567 1.892 1.344 2.451 2.331.558.988.861 2.106.911 3.352h-3.941c-.214-1.069-.566-1.818-1.059-2.247-.492-.428-1.265-.643-2.315-.643-.855 0-1.548.126-2.082.376-.533.251-.944.729-1.23 1.433-.288.705-.432 1.72-.432 3.048s.144 2.343.431 3.047c.287.705.698 1.183 1.231 1.434.534.251 1.227.376 2.082.376 1.05 0 1.823-.214 2.315-.643.493-.43.845-1.178 1.059-2.247H99c-.05 1.247-.353 2.364-.911 3.352-.56.988-1.376 1.764-2.451 2.332-1.076.567-2.393.849-3.953.849-1.79 0-3.256-.389-4.397-1.165a6.764 6.764 0 0 1-2.5-3.085c-.525-1.278-.788-2.696-.788-4.25 0-1.554.263-2.97.788-4.25" id="Fill-14"/><path d="m118.931 122.5-1.733-6.3h-.396l-1.734 6.3h3.863Zm1.041 3.75h-5.944l-.769 2.75H109l4.978-17h6.044L125 129h-4.26l-.768-2.75Z" id="Fill-15"/><path id="Fill-16" d="M146 115.75h-4.492V129h-4.015v-13.25H133V112h13v3.75"/><path id="Fill-17" d="M156 129h4v-17h-4z"/><path d="M182.023 124.192c.748-.778 1.121-2.008 1.121-3.692 0-1.683-.373-2.914-1.12-3.692-.747-.777-1.755-1.165-3.024-1.165-1.27 0-2.277.388-3.025 1.165-.747.778-1.12 2.009-1.12 3.692 0 1.684.373 2.914 1.12 3.692.748.776 1.755 1.165 3.025 1.165 1.269 0 2.277-.389 3.023-1.165Zm-7.289 3.703a7.305 7.305 0 0 1-2.77-3.036c-.643-1.287-.964-2.74-.964-4.359 0-1.619.32-3.072.964-4.36a7.308 7.308 0 0 1 2.77-3.035c1.205-.737 2.627-1.105 4.266-1.105 1.638 0 3.06.368 4.265 1.105a7.308 7.308 0 0 1 2.77 3.035c.644 1.288.965 2.741.965 4.36 0 1.619-.321 3.072-.964 4.36a7.305 7.305 0 0 1-2.771 3.035c-1.206.737-2.627 1.105-4.265 1.105-1.64 0-3.06-.368-4.266-1.105Z" id="Fill-18"/><path id="Fill-19" d="M210 112v17h-4l-6.6-9.7h-.4v9.7h-4v-17h4l6.6 9.7h.4V112h4"/><path d="M58.542 47.463h50.916V30.752c0-13.904-11.42-25.215-25.458-25.215-14.037 0-25.458 11.311-25.458 25.215v16.71ZM110 48H58V30.752C58 16.552 69.664 5 84 5c14.337 0 26 11.552 26 25.752V48Z" id="Fill-20"/><path d="m79.771 24.036 36.203 36.193 11.997-11.994c9.98-9.98 9.98-26.215 0-36.193-4.836-4.835-11.263-7.497-18.101-7.497-6.838 0-13.267 2.662-18.101 7.497L79.77 24.036ZM115.974 61 79 24.036l12.383-12.38C96.32 6.72 102.886 4 109.87 4c6.983 0 13.548 2.72 18.486 7.656 10.192 10.191 10.192 26.772 0 36.965L115.974 61Z" id="Fill-21"/><path d="M123.538 51.458h16.712c13.902 0 25.213-11.42 25.213-25.457 0-14.038-11.311-25.459-25.213-25.459h-16.712v50.916ZM140.25 52H123V0h17.25C154.448 0 166 11.664 166 26s-11.552 26-25.75 26Z" id="Fill-22"/></g></g></g></g></svg>