<?xml version="1.0" encoding="UTF-8"?>
<svg width="143px" height="30px" viewBox="0 0 143 30" version="1.1" xmlns="http://www.w3.org/2000/svg" xmlns:xlink="http://www.w3.org/1999/xlink">
    <title>DimensionsEducation-WordMark</title>
    <g id="Symbols" stroke="none" stroke-width="1" fill="none" fill-rule="evenodd">
        <g id="Sticky-Nav" transform="translate(-471.000000, -28.000000)" fill="#007755">
            <g id="Group-9" transform="translate(471.000000, 28.000000)">
                <path d="M5.61564872,8.25817812 C5.99783159,8.04726874 6.24990965,7.73047425 6.37188291,7.30349037 C6.49466932,6.87736735 6.55565595,6.27649084 6.55565595,5.5 C6.55565595,4.70198779 6.49466932,4.09250274 6.37188291,3.6724057 C6.24990965,3.2514478 6.00027105,2.93895758 5.62296711,2.73407419 C5.24647633,2.5291908 4.66588363,2.4267491 3.88118901,2.4267491 L2.44515721,2.4267491 L2.44515721,8.5732509 L3.88118901,8.5732509 C4.65531261,8.5732509 5.23346585,8.46822664 5.61564872,8.25817812 M9,5.5 C9,9.16637972 7.29400072,11 3.88118901,11 L0,11 L0,0 L3.88118901,0 C7.29400072,0 9,1.83362028 9,5.5" id="Fill-1"></path>
                <polygon id="Fill-2" points="15 11 18 11 18 0 15 0"></polygon>
                <polyline id="Fill-3" points="38 0 38 11 35.3808311 11 35.3808311 5.742761 35.1185657 5.742761 32.6788874 10.2553608 30.3211126 10.2553608 27.8814343 5.742761 27.6200402 5.742761 27.6200402 11 25 11 25 0 27.6200402 0 31.3693029 6.97206136 31.6306971 6.97206136 35.3808311 0 38 0"></polyline>
                <polyline id="Fill-4" points="47.4458517 2.4267491 47.4458517 4.28705588 51.083314 4.28705588 51.083314 6.71380498 47.4458517 6.71380498 47.4458517 8.5732509 52 8.5732509 52 11 45 11 45 0 52 0 52 2.4267491 47.4458517 2.4267491"></polyline>
                <polyline id="Fill-5" points="69 0 69 11 66.3336881 11 61.9324109 4.72350916 61.6663119 4.72350916 61.6663119 11 59 11 59 0 61.6663119 0 66.0667021 6.27649084 66.3336881 6.27649084 66.3336881 0 69 0"></polyline>
                <path d="M76,7.10308651 C76.7400881,7.58476509 77.6026432,7.96191273 78.5911894,8.23452942 C79.5788546,8.50630987 80.4704846,8.64261821 81.2651982,8.64261821 C82.0378855,8.64261821 82.5779736,8.58491714 82.8872247,8.46951498 C83.1955947,8.35494906 83.3506608,8.12414475 83.3506608,7.77793827 C83.3506608,7.55884142 83.2634361,7.38072069 83.0854626,7.24441235 C82.9101322,7.108104 82.6220264,6.98266687 82.2246696,6.86726471 C81.8273128,6.75186255 81.1867841,6.5996655 80.3039648,6.41150981 C79.3118943,6.20161168 78.5215859,5.97415235 77.9374449,5.72745933 C77.3524229,5.48160255 76.9101322,5.16968223 76.6123348,4.79337084 C76.3145374,4.4162232 76.1665198,3.92869089 76.1665198,3.33161016 C76.1665198,2.18929603 76.5594714,1.34886726 77.3506608,0.809487608 C78.138326,0.270107952 79.245815,0 80.6687225,0 C81.354185,0 82.1277533,0.086969743 82.9947137,0.259236734 C83.861674,0.432339973 84.5647577,0.644746845 85.1057269,0.895621104 L85.1057269,3.28394405 C84.3118943,3.00129238 83.4748899,2.7763418 82.5973568,2.60909229 C81.7198238,2.44100654 81.0052863,2.35738179 80.4537445,2.35738179 C79.9348018,2.35738179 79.5321586,2.4017029 79.245815,2.49118139 C78.9577093,2.57982363 78.8140969,2.7763418 78.8140969,3.07989965 C78.8140969,3.34248137 78.985022,3.54150829 79.3277533,3.67698039 C79.6696035,3.81328873 80.2651982,3.97552075 81.1154185,4.1645127 C82.4299559,4.44716436 83.3947137,4.69134864 84.0123348,4.89539304 C84.630837,5.09943743 85.1162996,5.40048654 85.4696035,5.79854037 C85.8229075,6.19659419 86,6.76273377 86,7.4952866 C86,8.67941311 85.5629956,9.55998175 84.692511,10.1361563 C83.8193833,10.7114946 82.677533,11 81.2651982,11 C80.4255507,11 79.4731278,10.8662004 78.4088106,10.5994374 C77.3436123,10.3326745 76.5400881,9.99901171 76,9.60179413 L76,7.10308651" id="Fill-6"></path>
                <polygon id="Fill-7" points="92 11 95 11 95 0 92 0"></polygon>
                <path d="M108.579306,7.88892268 C109.09241,7.38546339 109.349844,6.58929522 109.349844,5.50041816 C109.349844,4.41070478 109.09241,3.61453661 108.579306,3.11107732 C108.06532,2.60845435 107.372365,2.3567247 106.499559,2.3567247 C105.627635,2.3567247 104.93468,2.60845435 104.420694,3.11107732 C103.90759,3.61453661 103.650156,4.41070478 103.650156,5.50041816 C103.650156,6.58929522 103.90759,7.38546339 104.420694,7.88892268 C104.93468,8.39154565 105.627635,8.6432753 106.499559,8.6432753 C107.372365,8.6432753 108.06532,8.39154565 108.579306,7.88892268 M103.568165,10.284954 C102.739441,9.80825667 102.103791,9.15342507 101.662098,8.32129552 C101.220406,7.48832966 101,6.54747966 101,5.50041816 C101,4.45252034 101.220406,3.51250665 101.662098,2.67954079 C102.103791,1.84657493 102.739441,1.19174333 103.568165,0.715045997 C104.396009,0.238348666 105.373728,0 106.499559,0 C107.626272,0 108.603991,0.238348666 109.432716,0.715045997 C110.260559,1.19174333 110.895327,1.84657493 111.33702,2.67954079 C111.778713,3.51250665 112,4.45252034 112,5.50041816 C112,6.54747966 111.778713,7.48832966 111.33702,8.32129552 C110.895327,9.15342507 110.260559,9.80825667 109.432716,10.284954 C108.603991,10.7624876 107.626272,11 106.499559,11 C105.373728,11 104.396009,10.7624876 103.568165,10.284954" id="Fill-8"></path>
                <polyline id="Fill-9" points="127 0 127 11 124.333038 11 119.933038 4.72350916 119.666962 4.72350916 119.666962 11 117 11 117 0 119.666962 0 124.066075 6.27649084 124.333038 6.27649084 124.333038 0 127 0"></polyline>
                <path d="M133,7.10308651 C133.739207,7.58476509 134.602643,7.96191273 135.591189,8.23452942 C136.578855,8.50630987 137.469604,8.64261821 138.265198,8.64261821 C139.037004,8.64261821 139.577974,8.58491714 139.887225,8.46951498 C140.195595,8.35494906 140.350661,8.12414475 140.350661,7.77793827 C140.350661,7.55884142 140.262555,7.38072069 140.085463,7.24441235 C139.909251,7.108104 139.622026,6.98266687 139.22467,6.86726471 C138.827313,6.75186255 138.186784,6.5996655 137.303965,6.41150981 C136.310132,6.20161168 135.521586,5.97415235 134.936564,5.72745933 C134.351542,5.48160255 133.910132,5.16968223 133.612335,4.79337084 C133.314537,4.4162232 133.165639,3.92869089 133.165639,3.33161016 C133.165639,2.18929603 133.559471,1.34886726 134.348899,0.809487608 C135.138326,0.270107952 136.244934,0 137.668722,0 C138.352423,0 139.127753,0.086969743 139.994714,0.259236734 C140.860793,0.432339973 141.564758,0.644746845 142.105727,0.895621104 L142.105727,3.28394405 C141.310132,3.00129238 140.47489,2.7763418 139.597357,2.60909229 C138.719824,2.44100654 138.004405,2.35738179 137.452863,2.35738179 C136.933921,2.35738179 136.531278,2.4017029 136.244934,2.49118139 C135.957709,2.57982363 135.814097,2.7763418 135.814097,3.07989965 C135.814097,3.34248137 135.985022,3.54150829 136.327753,3.67698039 C136.669604,3.81328873 137.266079,3.97552075 138.115419,4.1645127 C139.429075,4.44716436 140.394714,4.69134864 141.012335,4.89539304 C141.630837,5.09943743 142.1163,5.40048654 142.469604,5.79854037 C142.822907,6.19659419 143,6.76273377 143,7.4952866 C143,8.67941311 142.562996,9.55998175 141.69163,10.1361563 C140.819383,10.7114946 139.677533,11 138.265198,11 C137.425551,11 136.473128,10.8662004 135.408811,10.5994374 C134.343612,10.3326745 133.540088,9.99901171 133,9.60179413 L133,7.10308651" id="Fill-10"></path>
                <polyline id="Fill-11" points="11.4455572 21.4262295 11.4455572 23.2873167 15.082916 23.2873167 15.082916 25.7135462 11.4455572 25.7135462 11.4455572 27.5737705 16 27.5737705 16 30 9 30 9 19 16 19 16 21.4262295 11.4455572 21.4262295"></polyline>
                <path d="M28.6156284,27.2581961 C28.9978269,27.0476863 29.2496378,26.7293333 29.3718761,26.3031373 C29.4941145,25.8786667 29.5552336,25.2764706 29.5552336,24.5 C29.5552336,23.7028235 29.4941145,23.0928627 29.3718761,22.6718431 C29.2496378,22.2516863 29.0002716,21.9393725 28.6229627,21.7340392 C28.2464687,21.5295686 27.6654292,21.4260392 26.8806592,21.4260392 L25.4447664,21.4260392 L25.4447664,27.573098 L26.8806592,27.573098 C27.6556501,27.573098 28.2334299,27.4678431 28.6156284,27.2581961 M32,24.5 C32,28.1666667 30.2935531,30 26.8806592,30 L23,30 L23,19 L26.8806592,19 C30.2935531,19 32,20.8333333 32,24.5" id="Fill-12"></path>
                <path d="M46.634968,28.9474416 C45.7243618,29.6488638 44.512852,30 43.0004386,30 C41.487148,30 40.2747609,29.6488638 39.365032,28.9474416 C38.4544258,28.2468697 38,27.2155665 38,25.8552326 L38,19 L40.6318098,19 L40.6318098,25.2184263 C40.6318098,25.7812645 40.6976051,26.2327253 40.8291955,26.5728088 C40.9599088,26.912042 41.1958944,27.1705055 41.5362751,27.3447983 C41.8757786,27.5207915 42.3635407,27.608363 43.0004386,27.608363 C43.6355821,27.608363 44.1242214,27.5207915 44.4637249,27.3447983 C44.8032284,27.1705055 45.0400912,26.912042 45.1708045,26.5728088 C45.3023949,26.2327253 45.3690675,25.7812645 45.3690675,25.2184263 L45.3690675,19 L48,19 L48,25.8552326 C48,27.2155665 47.5446969,28.2468697 46.634968,28.9474416" id="Fill-14"></path>
                <path d="M53.5254861,21.7491618 C53.8758101,20.9218988 54.4310737,20.2564005 55.1921527,19.753505 C55.9532317,19.2506096 56.92976,19 58.1234892,19 C59.1630758,19 60.0415134,19.1827187 60.7588019,19.5498324 C61.4760904,19.9161079 62.0199685,20.4198415 62.3930636,21.0585187 C62.7652829,21.697196 62.967595,22.4205273 63,23.2268363 L60.3725696,23.2268363 C60.2306884,22.5353551 59.9950955,22.0508991 59.6666667,21.7726303 C59.3382379,21.4960378 58.8232615,21.3569034 58.1234892,21.3569034 C57.5533368,21.3569034 57.0917849,21.4382048 56.7353302,21.6008077 C56.3797513,21.7625724 56.1064985,22.0718531 55.9146961,22.5278116 C55.7228937,22.9837702 55.6274304,23.6408869 55.6274304,24.5 C55.6274304,25.3591131 55.7228937,26.0162298 55.9146961,26.4713502 C56.1064985,26.9273087 56.3797513,27.2374276 56.7353302,27.3991923 C57.0917849,27.5617952 57.5533368,27.6430966 58.1234892,27.6430966 C58.8232615,27.6430966 59.3382379,27.5048004 59.6666667,27.2265315 C59.9950955,26.9491009 60.2306884,26.4638068 60.3725696,25.7723255 L63,25.7723255 C62.967595,26.5794727 62.7652829,27.3019659 62.3930636,27.9414813 C62.0199685,28.5809966 61.4760904,29.0830539 60.7588019,29.4501676 C60.0415134,29.8172813 59.1630758,30 58.1234892,30 C56.92976,30 55.9532317,29.7485523 55.1921527,29.2456568 C54.4310737,28.7427614 53.8758101,28.077263 53.5254861,27.25 C53.175162,26.422737 53,25.5057909 53,24.5 C53,23.4942091 53.175162,22.577263 53.5254861,21.7491618" id="Fill-15"></path>
                <path d="M75.2070674,25.7955134 L74.1238441,21.718723 L73.8761559,21.718723 L72.7929326,25.7955134 L75.2070674,25.7955134 Z M75.8576618,28.2217429 L72.1431638,28.2217429 L71.6626486,30 L69,30 L72.11179,19 L75.8890357,19 L79,30 L76.3373514,30 L75.8576618,28.2217429 L75.8576618,28.2217429 Z" id="Fill-17"></path>
                <polyline id="Fill-18" points="92 21.4262295 89.2355848 21.4262295 89.2355848 30 86.7652389 30 86.7652389 21.4262295 84 21.4262295 84 19 92 19 92 21.4262295"></polyline>
                <polygon id="Fill-19" points="99 30 102 30 102 19 99 19"></polygon>
                <path d="M115.578072,26.8879153 C116.092289,26.3850198 116.348514,25.5896068 116.348514,24.5 C116.348514,23.4112313 116.092289,22.614142 115.578072,22.1112466 C115.065622,21.6083511 114.372048,21.3569034 113.499116,21.3569034 C112.627068,21.3569034 111.934378,21.6083511 111.420161,22.1112466 C110.906827,22.614142 110.650602,23.4112313 110.650602,24.5 C110.650602,25.5896068 110.906827,26.3850198 111.420161,26.8879153 C111.934378,27.3908107 112.627068,27.6422585 113.499116,27.6422585 C114.372048,27.6422585 115.065622,27.3908107 115.578072,26.8879153 M110.56755,29.2850503 C109.738795,28.8081378 109.103534,28.1535355 108.662651,27.3204054 C108.22,26.4881134 108,25.5476989 108,24.5 C108,23.4523011 108.22,22.5110485 108.662651,21.6787565 C109.103534,20.8464645 109.738795,20.1918622 110.56755,19.7149497 C111.395422,19.2380372 112.37261,19 113.499116,19 C114.625622,19 115.602811,19.2380372 116.431566,19.7149497 C117.260321,20.1918622 117.895582,20.8464645 118.336466,21.6787565 C118.778233,22.5110485 119,23.4523011 119,24.5 C119,25.5476989 118.778233,26.4881134 118.336466,27.3204054 C117.895582,28.1535355 117.260321,28.8081378 116.431566,29.2850503 C115.602811,29.7619628 114.625622,30 113.499116,30 C112.37261,30 111.395422,29.7619628 110.56755,29.2850503" id="Fill-21"></path>
                <polyline id="Fill-23" points="134 19 134 30 131.333096 30 126.933594 23.7235294 126.666904 23.7235294 126.666904 30 124 30 124 19 126.666904 19 131.066406 25.2764706 131.333096 25.2764706 131.333096 19 134 19"></polyline>
            </g>
        </g>
    </g>
</svg>