<?xml version="1.0" encoding="UTF-8"?>
<svg width="40px" height="40px" viewBox="0 0 40 40" version="1.1" xmlns="http://www.w3.org/2000/svg" xmlns:xlink="http://www.w3.org/1999/xlink">
    <title>linkedin</title>
    <g id="Symbols" stroke="none" stroke-width="1" fill="none" fill-rule="evenodd">
        <g id="subscription-+-socials" transform="translate(-1000.000000, -229.000000)" fill="#ffffff">
            <g id="socials" transform="translate(835.000000, 229.000000)">
                <g id="linkedin" transform="translate(165.000000, 0.000000)">
                    <rect id="Rectangle" stroke="#ffffff" fill-opacity="0" x="0.5" y="0.5" width="39" height="39" rx="19.5"></rect>
                    <path d="M25.999969,26.9999976 C26.5499555,26.9999976 26.9999666,26.5468737 26.9999666,25.9906311 L26.9999666,14.0093975 C26.9999666,13.4531549 26.5499555,13.000031 25.999969,13.000031 L13.9968848,13.000031 C13.4468678,13.000031 13,13.4531549 13,14.0093975 L13,25.9906311 C13,26.5468737 13.4468678,26.9999976 13.9968848,26.9999976 L25.999969,26.9999976 Z M16.1937485,17.4062705 C15.5281312,17.4062705 14.9906264,16.8656529 14.9906264,16.2031484 C14.9906264,15.5406438 15.5281312,15.0000262 16.1937485,15.0000262 C16.856253,15.0000262 17.3968706,15.5406438 17.3968706,16.2031484 C17.3968706,16.8687657 16.8593658,17.4062705 16.1937485,17.4062705 Z M20.6093569,25.0000024 L18.5343496,25.0000024 L18.5343496,18.3187744 L20.524976,18.3187744 L20.524976,19.2312783 L20.5531131,19.2312783 C20.8312191,18.7062552 21.5093486,18.1531559 22.5187151,18.1531559 C24.6187162,18.1531559 25.0093403,19.5375215 25.0093403,21.337505 L25.0093403,25.0000024 L22.9343635,25.0000024 L22.9343635,21.7500101 C22.9343635,20.9750181 22.9187386,19.9781333 21.8562411,19.9781333 C20.7749754,19.9781333 20.6093569,20.8218812 20.6093569,21.6937664 L20.6093569,25.0000024 Z M17.2343649,25.0000024 L15.1562449,25.0000024 L15.1562449,18.3187744 L17.2343649,18.3187744 L17.2343649,25.0000024 Z" fill-rule="nonzero"></path>
                </g>
            </g>
        </g>
    </g>
</svg>