<svg version="1.1" id="Layer_1" xmlns="http://www.w3.org/2000/svg" x="0" y="0" viewBox="0 0 383.9 529" style="enable-background:new 0 0 383.9 529" xml:space="preserve"><style>.st0{fill:none}</style><path class="st0" d="M191.9 14.5H9v182.7C9.1 96.3 91 14.5 191.9 14.5zM9 197.8v316.7h182.9S9.3 356.2 9 197.8z"/><path class="st0" d="M374.9 196.9V14.5h-183c100.9 0 182.7 81.6 183 182.4zM191.9 514.5h182.9V198.2c-.6 158.3-182.9 316.3-182.9 316.3z"/><path d="M374.9 198.2v-1.4c-.3-100.7-82.1-182.3-183-182.3S9.1 96.3 9 197.2v.6c.3 158.4 182.9 316.7 182.9 316.7s182.3-158 183-316.3zm-232 38.6h-17.3v-44.2c0-36.6 29.8-66.4 66.4-66.4s66.4 29.8 66.4 66.4v44.2H142.9z" style="fill:#027756"/></svg>