<svg width="40" height="40" xmlns="http://www.w3.org/2000/svg"><g id="Symbols" stroke="none" stroke-width="1" fill="none" fill-rule="evenodd"><g id="subscription-+-socials" transform="translate(-945 -229)" fill="#fff"><g id="socials" transform="translate(835 229)"><g id="tw" transform="translate(110)"><rect id="Rectangle" stroke="#fff" fill-opacity="0" x=".5" y=".5" width="39" height="39" rx="19.5"/><path d="M17.35 27c6.408 0 9.913-5.381 9.913-10.052 0-.153 0-.306-.01-.459A7.547 7.547 0 0 0 29 14.663a6.91 6.91 0 0 1-2.006.546 3.515 3.515 0 0 0 1.531-1.947c-.668.405-1.423.7-2.21.854A3.454 3.454 0 0 0 23.767 13c-1.93 0-3.484 1.586-3.484 3.533 0 .273.033.547.087.81a9.86 9.86 0 0 1-7.184-3.698 3.543 3.543 0 0 0-.475 1.783c0 1.225.615 2.308 1.553 2.942a3.472 3.472 0 0 1-1.575-.448v.044a3.521 3.521 0 0 0 2.794 3.467c-.291.076-.604.12-.917.12-.226 0-.442-.022-.658-.055a3.497 3.497 0 0 0 3.258 2.45 6.917 6.917 0 0 1-4.326 1.51c-.29 0-.56-.011-.841-.044A9.748 9.748 0 0 0 17.35 27Z" id="twitter" fill-rule="nonzero"/></g></g></g></g></svg>