<?xml version="1.0" encoding="UTF-8"?>
<svg width="280px" height="161px" viewBox="0 0 280 161" version="1.1" xmlns="http://www.w3.org/2000/svg" xmlns:xlink="http://www.w3.org/1999/xlink">
    <title>Dimensions-Education-Logo</title>
    <g id="Welcome" stroke="none" stroke-width="1" fill="none" fill-rule="evenodd">
        <g id="Dimensions---Landing-Page" transform="translate(-109.000000, -5198.000000)" fill="#027756" fill-rule="nonzero">
            <g id="Photo-Gallery-+-Journey" transform="translate(0.000000, 3986.000000)">
                <g id="Dimensions-Education-Logo" transform="translate(109.000000, 1212.000000)">
                    <path d="M19,112 C19,119.390625 15.4054054,123 8.21621622,123 L0,123 L0,101 L8.21621622,101 C15.4054054,101 19,104.609375 19,112 M11.8108108,117.5 C12.6666667,117.15625 13.1801802,116.46875 13.3513514,115.609375 C13.6936937,114.75 13.6936937,113.546875 13.6936937,112 C13.6936937,110.453125 13.5225225,109.25 13.3513514,108.390625 C13.009009,107.53125 12.4954955,106.84375 11.8108108,106.5 C10.954955,106.15625 9.75675676,105.8125 8.21621622,105.8125 L5.13513514,105.8125 L5.13513514,118.015625 L8.21621622,118.015625 C9.75675676,118.015625 10.954955,117.84375 11.8108108,117.5" id="Shape"></path>
                    <rect id="Rectangle" x="31" y="101" width="5" height="22"></rect>
                    <polygon id="Path" points="75 102 75 123 69.8333333 123 69.8333333 112.913386 69.3333333 112.913386 64.6666667 121.677165 60.1666667 121.677165 55.5 112.913386 55 112.913386 55 123 50 123 50 102 55 102 62.1666667 115.393701 62.6666667 115.393701 69.8333333 102"></polygon>
                    <polygon id="Path" points="93.8837209 106.629921 93.8837209 110.102362 101.209302 110.102362 101.209302 114.897638 93.8837209 114.897638 93.8837209 118.370079 103 118.370079 103 123 89 123 89 102 103 102 103 106.629921"></polygon>
                    <polygon id="Path" points="136 102 136 123 130.955752 123 122.548673 111.094488 122.044248 111.094488 122.044248 123 117 123 117 102 122.044248 102 130.451327 114.070866 130.955752 114.070866 130.955752 102"></polygon>
                    <path d="M150.168142,115.729323 C151.513274,116.721805 153.19469,117.383459 155.044248,118.045113 C156.893805,118.541353 158.575221,118.87218 160.088496,118.87218 C161.60177,118.87218 162.610619,118.706767 163.115044,118.541353 C163.787611,118.37594 163.955752,117.879699 163.955752,117.218045 C163.955752,116.721805 163.787611,116.390977 163.451327,116.225564 C163.115044,115.894737 162.610619,115.729323 161.769912,115.398496 C160.929204,115.233083 159.752212,114.902256 158.070796,114.571429 C156.221239,114.075188 154.707965,113.744361 153.530973,113.24812 C152.353982,112.75188 151.513274,112.090226 151.00885,111.428571 C150.504425,110.601504 150.168142,109.774436 150.168142,108.616541 C150.168142,106.300752 150.840708,104.646617 152.353982,103.654135 C153.867257,102.661654 156.053097,102 158.743363,102 C160.088496,102 161.60177,102.165414 163.115044,102.496241 C164.79646,102.827068 166.141593,103.323308 167.150442,103.819549 L167.150442,108.616541 C165.637168,108.120301 163.955752,107.62406 162.442478,107.293233 C160.761062,106.962406 159.415929,106.796992 158.40708,106.796992 C157.39823,106.796992 156.725664,106.962406 156.053097,107.12782 C155.548673,107.293233 155.212389,107.62406 155.212389,108.285714 C155.212389,108.781955 155.548673,109.278195 156.221239,109.443609 C156.893805,109.774436 158.070796,110.105263 159.584071,110.43609 C162.106195,110.932331 163.955752,111.428571 165.132743,111.924812 C166.309735,112.255639 167.318584,112.917293 167.99115,113.744361 C168.663717,114.571429 169,115.729323 169,117.052632 C169,119.368421 168.159292,121.18797 166.477876,122.345865 C164.79646,123.503759 162.610619,124 159.920354,124 C158.238938,124 156.557522,123.669173 154.539823,123.172932 C152.522124,122.676692 151.00885,122.015038 150,121.18797 L150,115.729323 L150.168142,115.729323 Z" id="Path"></path>
                    <rect id="Rectangle" x="182" y="101" width="5" height="22"></rect>
                    <path d="M204,121.5 C202.5,120.5 201.166667,119.166667 200.333333,117.666667 C199.5,116 199,114.166667 199,112 C199,109.833333 199.333333,108 200.333333,106.333333 C201.166667,104.666667 202.333333,103.333333 204,102.5 C205.5,101.5 207.333333,101 209.5,101 C211.666667,101 213.5,101.5 215,102.5 C216.5,103.5 217.833333,104.833333 218.666667,106.333333 C219.5,108 220,109.833333 220,112 C220,114.166667 219.5,116 218.666667,117.666667 C217.833333,119.333333 216.666667,120.666667 215,121.5 C213.5,122.5 211.666667,123 209.5,123 C207.333333,122.833333 205.5,122.333333 204,121.5 M213.5,116.666667 C214.5,115.666667 215,114 215,111.833333 C215,109.666667 214.5,108 213.5,107 C212.5,106 211.166667,105.5 209.5,105.5 C207.833333,105.5 206.5,106 205.5,107 C204.5,108 204,109.666667 204,111.833333 C204,114 204.5,115.666667 205.5,116.666667 C206.5,117.666667 207.833333,118.166667 209.5,118.166667 C211.166667,118.166667 212.5,117.666667 213.5,116.666667" id="Shape"></path>
                    <polygon id="Path" points="250 102 250 123 244.955752 123 236.548673 111.094488 236.044248 111.094488 236.044248 123 231 123 231 102 236.044248 102 244.451327 114.070866 244.955752 114.070866 244.955752 102"></polygon>
                    <path d="M261.168142,115.729323 C262.513274,116.721805 264.19469,117.383459 266.044248,118.045113 C267.893805,118.541353 269.575221,118.87218 271.088496,118.87218 C272.60177,118.87218 273.610619,118.706767 274.115044,118.541353 C274.787611,118.37594 274.955752,117.879699 274.955752,117.218045 C274.955752,116.721805 274.787611,116.390977 274.451327,116.225564 C274.115044,115.894737 273.610619,115.729323 272.769912,115.398496 C271.929204,115.233083 270.752212,114.902256 269.070796,114.571429 C267.221239,114.075188 265.707965,113.744361 264.530973,113.24812 C263.353982,112.75188 262.513274,112.090226 262.00885,111.428571 C261.504425,110.601504 261.168142,109.774436 261.168142,108.616541 C261.168142,106.300752 261.840708,104.646617 263.353982,103.654135 C264.867257,102.661654 267.053097,102 269.743363,102 C271.088496,102 272.60177,102.165414 274.115044,102.496241 C275.79646,102.827068 277.141593,103.323308 278.150442,103.819549 L278.150442,108.616541 C276.637168,108.120301 274.955752,107.62406 273.442478,107.293233 C271.761062,106.962406 270.415929,106.796992 269.40708,106.796992 C268.39823,106.796992 267.725664,106.962406 267.053097,107.12782 C266.548673,107.293233 266.212389,107.62406 266.212389,108.285714 C266.212389,108.781955 266.548673,109.278195 267.221239,109.443609 C267.893805,109.774436 269.070796,110.105263 270.584071,110.43609 C273.106195,110.932331 274.955752,111.428571 276.132743,111.924812 C277.309735,112.255639 278.318584,112.917293 278.99115,113.744361 C279.663717,114.571429 280,115.729323 280,117.052632 C280,119.368421 279.159292,121.18797 277.477876,122.345865 C275.79646,123.503759 273.610619,124 270.920354,124 C269.238938,124 267.557522,123.669173 265.539823,123.172932 C263.522124,122.676692 262.00885,122.015038 261,121.18797 L261,115.729323 L261.168142,115.729323 Z" id="Path"></path>
                    <polygon id="Path" points="22.8837209 142.8125 22.8837209 146.59375 30.0465116 146.59375 30.0465116 151.40625 22.8837209 151.40625 22.8837209 155.1875 32 155.1875 32 160 18 160 18 138 32 138 32 142.8125"></polygon>
                    <path d="M64,149 C64,156.21875 60.4054054,160 53.2162162,160 L45,160 L45,138 L53.2162162,138 C60.5765766,138 64,141.609375 64,149 M56.981982,154.5 C57.8378378,154.15625 58.3513514,153.46875 58.5225225,152.609375 C58.6936937,151.75 58.8648649,150.546875 58.8648649,149 C58.8648649,147.453125 58.6936937,146.25 58.5225225,145.390625 C58.1801802,144.53125 57.6666667,144.015625 56.981982,143.5 C56.1261261,143.15625 54.9279279,142.8125 53.3873874,142.8125 L50.3063063,142.8125 L50.3063063,155.015625 L53.3873874,155.015625 C54.9279279,155.1875 56.1261261,154.84375 56.981982,154.5" id="Shape"></path>
                    <path d="M92.3333333,158.953488 C90.6666667,160.317829 88.3333333,161 85.5,161 C82.6666667,161 80.3333333,160.317829 78.6666667,158.953488 C77,157.589147 76,155.542636 76,152.813953 L76,139 L81,139 L81,151.449612 C81,152.643411 81.1666667,153.496124 81.3333333,154.178295 C81.5,154.860465 82,155.372093 82.6666667,155.713178 C83.3333333,156.054264 84.1666667,156.224806 85.5,156.224806 C86.6666667,156.224806 87.6666667,156.054264 88.3333333,155.713178 C89,155.372093 89.5,154.860465 89.6666667,154.178295 C89.8333333,153.496124 90,152.643411 90,151.449612 L90,139 L95,139 L95,152.813953 C94.8333333,155.542636 94,157.589147 92.3333333,158.953488" id="Path"></path>
                    <path d="M107,144.458647 C107.666667,142.804511 108.666667,141.481203 110.166667,140.488722 C111.666667,139.496241 113.5,139 115.666667,139 C117.666667,139 119.333333,139.330827 120.666667,140.157895 C122,140.819549 123,141.81203 123.833333,143.135338 C124.5,144.458647 125,145.781955 125,147.43609 L120,147.43609 C119.666667,146.112782 119.333333,145.120301 118.666667,144.62406 C118,144.12782 117,143.796992 115.666667,143.796992 C114.5,143.796992 113.666667,143.962406 113,144.293233 C112.333333,144.62406 111.833333,145.285714 111.5,146.112782 C111.166667,146.93985 111,148.263158 111,149.917293 C111,151.571429 111.166667,152.894737 111.5,153.887218 C111.833333,154.714286 112.333333,155.37594 113,155.706767 C113.666667,156.037594 114.5,156.203008 115.666667,156.203008 C117,156.203008 118,155.87218 118.666667,155.37594 C119.333333,154.879699 119.666667,153.887218 120,152.56391 L125,152.56391 C125,154.218045 124.5,155.541353 123.833333,156.864662 C123.166667,158.18797 122.166667,159.180451 120.666667,159.842105 C119.333333,160.503759 117.666667,161 115.666667,161 C113.333333,161 111.5,160.503759 110.166667,159.511278 C108.666667,158.518797 107.666667,157.195489 107,155.541353 C106.333333,153.887218 106,152.067669 106,150.082707 C106,148.097744 106.333333,146.112782 107,144.458647" id="Path"></path>
                    <path d="M149.606557,156.527559 L142.229508,156.527559 L141.245902,160 L136,160 L142.229508,139 L149.770492,139 L156,160 L150.754098,160 L149.606557,156.527559 Z M148.295082,151.897638 L146.163934,144.125984 L145.672131,144.125984 L143.540984,151.897638 L148.295082,151.897638 Z" id="Shape"></path>
                    <polygon id="Path" points="182 142.8125 176.556701 142.8125 176.556701 160 171.608247 160 171.608247 142.8125 166 142.8125 166 138 182 138"></polygon>
                    <rect id="Rectangle" x="195" y="138" width="5" height="22"></rect>
                    <path d="M218,158.5 C216.5,157.5 215.166667,156.166667 214.333333,154.666667 C213.5,153 213,151.166667 213,149 C213,146.833333 213.333333,145 214.333333,143.333333 C215.166667,141.666667 216.333333,140.333333 218,139.5 C219.5,138.5 221.333333,138 223.5,138 C225.666667,138 227.5,138.5 229,139.5 C230.5,140.5 231.833333,141.833333 232.666667,143.333333 C233.5,145 234,146.833333 234,149 C234,151.166667 233.5,153 232.666667,154.666667 C231.833333,156.333333 230.666667,157.666667 229,158.5 C227.5,159.5 225.666667,160 223.5,160 C221.333333,160 219.666667,159.5 218,158.5 M227.5,153.666667 C228.5,152.666667 229,151.166667 229,149 C229,146.833333 228.5,145.333333 227.5,144.166667 C226.5,143.166667 225.166667,142.666667 223.5,142.666667 C221.833333,142.666667 220.5,143.166667 219.5,144.166667 C218.5,145.166667 218,146.833333 218,149 C218,151.166667 218.5,152.666667 219.5,153.666667 C220.5,154.666667 221.833333,155.166667 223.5,155.166667 C225.166667,155.166667 226.5,154.666667 227.5,153.666667" id="Shape"></path>
                    <polygon id="Path" points="263 138 263 160 257.910714 160 249.598214 147.453125 249.089286 147.453125 249.089286 160 244 160 244 138 249.089286 138 257.401786 150.546875 257.910714 150.546875 257.910714 138"></polygon>
                    <path d="M175.326829,0 L153.102439,0 L153.102439,8.20264317 C148.126829,5.35682819 142.653659,3.85022026 136.682927,3.85022026 C130.380488,3.85022026 124.409756,5.69162996 119.268293,8.8722467 C114.956098,6.69603524 110.146341,5.35682819 104.839024,5.35682819 C86.7609756,5.35682819 72,20.2555066 72,38.5022026 L72,60.7665198 L129.219512,60.7665198 L144.312195,76 L154.097561,66.123348 L175.160976,66.123348 C193.239024,66.123348 208,51.2246696 208,32.9779736 C208,14.7312775 193.404878,0 175.326829,0 Z M175.326829,64.784141 L155.590244,64.784141 L159.902439,60.4317181 C172.673171,47.5418502 172.673171,26.4493392 159.902439,13.5594714 C158.243902,11.8854626 156.419512,10.3788546 154.595122,9.20704846 L154.595122,1.50660793 L175.160976,1.50660793 C192.409756,1.50660793 206.507317,15.7356828 206.507317,33.1453744 C206.673171,50.5550661 192.57561,64.784141 175.326829,64.784141 Z M104.839024,6.86343612 C109.482927,6.86343612 113.960976,7.86784141 117.941463,9.7092511 C116.44878,10.8810573 114.956098,12.0528634 113.629268,13.3920705 L98.0390244,29.1277533 L127.892683,59.092511 L73.4926829,59.092511 L73.4926829,38.5022026 C73.4926829,21.092511 87.5902439,6.86343612 104.839024,6.86343612 Z M114.62439,14.5638767 C116.117073,13.0572687 117.77561,11.7180617 119.434146,10.5462555 C129.385366,15.9030837 136.185366,26.4493392 136.185366,38.5022026 L136.185366,59.2599119 L129.717073,59.2599119 L99.8634146,29.2951542 L114.62439,14.5638767 Z M137.678049,60.9339207 L137.678049,38.5022026 C137.678049,26.1145374 130.878049,15.4008811 120.926829,9.7092511 C125.736585,6.86343612 131.043902,5.35682819 136.682927,5.35682819 C142.487805,5.35682819 148.126829,7.030837 153.102439,10.0440529 L153.102439,65.2863436 L144.312195,74.1585903 L131.37561,60.9339207 L137.678049,60.9339207 Z M158.907317,59.2599119 L154.595122,63.6123348 L154.595122,11.0484581 C156.087805,12.0528634 157.580488,13.2246696 158.907317,14.5638767 C171.180488,26.9515419 171.180488,47.0396476 158.907317,59.2599119 Z" id="Shape"></path>
                </g>
            </g>
        </g>
    </g>
</svg>