<?xml version="1.0" encoding="utf-8"?>
<!-- Generator: Adobe Illustrator 25.4.2, SVG Export Plug-In . SVG Version: 6.00 Build 0)  -->
<svg version="1.1" id="Layer_1" xmlns="http://www.w3.org/2000/svg" xmlns:xlink="http://www.w3.org/1999/xlink" x="0px" y="0px"
	 viewBox="0 0 383.9 529" style="enable-background:new 0 0 383.9 529;" xml:space="preserve">
<style type="text/css">
	.st0{fill:none;}
	.st1{fill:#027756;}
</style>
<g>
	<path class="st0" d="M191.9,14.5H9v182.7C9.1,96.3,91,14.5,191.9,14.5z"/>
	<path class="st0" d="M9,197.8v316.7h182.9C191.9,514.5,9.3,356.2,9,197.8z"/>
	<path class="st0" d="M374.9,196.9V14.5h-183C292.8,14.5,374.6,96.1,374.9,196.9z"/>
	<path class="st0" d="M191.9,514.5h182.9V198.2C374.2,356.5,191.9,514.5,191.9,514.5z"/>
	<path class="st1" d="M374.9,198.2v-1.4c-0.3-100.7-82.1-182.3-183-182.3S9.1,96.3,9,197.2v0.6c0.3,158.4,182.9,316.7,182.9,316.7
		S374.2,356.5,374.9,198.2z M142.9,236.8h-17.3v-44.2c0-36.6,29.8-66.4,66.4-66.4s66.4,29.8,66.4,66.4v44.2H142.9z"/>
</g>
</svg>
