<?xml version="1.0" encoding="UTF-8"?>
<svg width="155px" height="155px" viewBox="0 0 155 155" version="1.1" xmlns="http://www.w3.org/2000/svg" xmlns:xlink="http://www.w3.org/1999/xlink">
    <title>Group 43</title>
    <g id="Welcome" stroke="none" stroke-width="1" fill="none" fill-rule="evenodd">
        <g id="Dimensions---Landing-Page" transform="translate(-773.000000, -3318.000000)" fill="#000000">
            <g id="Into-Dimensions" transform="translate(0.000000, 3318.000000)">
                <g id="Group-43" transform="translate(773.000000, 0.000000)">
                    <path d="M49.1943448,14.5811736 C51.3504959,13.5987909 51.8885841,12.2391531 51.1922346,10.709877 C50.4857565,9.16287748 49.070268,8.69573933 46.8584089,9.70217518 L42.7486812,11.5770575 L44.9921924,16.4978325 L49.1943448,14.5811736 Z M40,10.6263238 L46.39502,7.7095588 C49.5843005,6.25624013 51.9645495,7.08544198 53.1761975,9.73888793 C53.9409158,11.416281 53.6788352,13.1379826 52.4874446,14.2824077 C53.7636632,14.0558014 54.6461279,14.4773651 55.5121334,15.8408008 C56.7668284,17.7625236 56.914961,18.7195871 57.9328972,19.6348741 L58,19.7817251 L56.0274319,20.6805546 C55.2462545,19.990608 54.746149,18.7499701 53.8978687,17.3789386 C52.7242034,15.4875988 52.140536,15.3306202 49.9843849,16.3130028 L45.7822325,18.2296618 L48.4714075,24.1264896 L46.5545474,25 L40,10.6263238 Z" id="Fill-1"></path>
                    <polygon id="Fill-3" points="59 2.81024227 70.3333937 1 70.65927 2.92862324 61.4079341 4.40591905 62.1712707 8.92412592 70.721402 7.55904541 71.0371343 9.42724503 62.487003 10.7935587 63.3226157 15.7396634 72.6741237 14.2463369 73 16.1749601 61.5651662 18"></polygon>
                    <polygon id="Fill-5" points="83.809901 2.66075559 78 2.15219738 78.1914191 0 92 1.20717039 91.809901 3.35936777 86 2.85212028 84.7445545 17 82.5557756 16.809946"></polygon>
                    <path d="M101.318026,12.1933457 C103.580057,12.9939145 104.93599,12.4044847 105.516921,10.8347665 C106.105563,9.24619659 105.411531,7.93160471 103.090379,7.10967059 L98.7783818,5.58393967 L96.9096357,10.6324249 L101.318026,12.1933457 Z M97.4610058,3 L104.169984,5.37531419 C107.515477,6.56045773 108.654204,8.80255325 107.645287,11.5247387 C107.00909,13.2452705 105.595321,14.2846276 103.918076,14.2682895 C105.005394,14.9947083 105.344698,15.9071306 105.005394,17.475592 C104.549132,19.7101468 103.975912,20.491864 104.063309,21.8491864 L104.008044,22 L101.938799,21.2672973 C101.861684,20.2342241 102.382209,19.0076068 102.740792,17.4454293 C103.234326,15.287538 102.922012,14.7710015 100.65998,13.9704326 L96.2515903,12.4095118 L94.0101231,18.4596507 L92,17.7483133 L97.4610058,3 Z" id="Fill-7"></path>
                    <polygon id="Fill-9" points="117.348255 11 127 17.7347731 125.813395 19.4107074 117.935696 13.9134877 115.154795 17.8421053 122.435936 22.9229277 121.285802 24.5484288 114.004662 19.4676064 110.96065 23.7673607 118.923014 29.3240657 117.736409 31 108 24.2057416"></polygon>
                    <path d="M132.488823,37.52 L136.378225,30.3374229 L128.119636,32.440363 L132.488823,37.52 Z M137.310266,28 L139,29.9647187 L130.877743,45 L129.359735,43.2352087 L131.442735,39.4106715 L125.937008,33.0117604 L121.518007,34.1175318 L120,32.3527405 L137.310266,28 Z" id="Fill-11"></path>
                    <polygon id="Fill-13" points="144.993444 44.0711054 142.682444 38.9101487 144.508465 38 150 50.2676147 148.175204 51.1777634 145.864203 46.0168067 133.870759 52 133 50.0542986"></polygon>
                    <path d="M146.972584,82.2075416 C146.825471,84.5717063 147.800582,85.6817258 149.52688,85.7828666 C151.274008,85.8852716 152.381911,84.8561646 152.531628,82.4325797 L152.810231,77.92676 L147.257696,77.6031097 L146.972584,82.2075416 Z M155,75.9469301 L154.566473,82.955983 C154.35036,86.4491312 152.448308,88.1634666 149.452673,87.9877346 C147.561035,87.877744 146.122454,86.8410515 145.656379,85.253142 C145.246286,86.4857947 144.437816,87.0673539 142.780518,87.1925156 C140.430617,87.3998541 139.489355,87.0812607 138.166641,87.5528294 L138,87.5427153 L138.134094,85.3808321 C139.137847,85.014197 140.506127,85.1545297 142.162123,85.048332 C144.446929,84.8991494 144.871343,84.4566587 145.017154,82.0937583 L145.302267,77.4893263 L138.647036,77.0999345 L138.777225,75 L155,75.9469301 Z" id="Fill-15"></path>
                    <polygon id="Fill-17" points="153 97.0636943 149.282497 108 147.346404 107.356688 150.382022 98.4305732 145.845997 96.9248408 143.039824 105.174522 141.163026 104.551592 143.969199 96.3006369 139.002646 94.6522293 135.934803 103.675159 134 103.033121 137.749729 92"></polygon>
                    <path d="M136.908285,107.979088 L135.606136,109.997073 C133.589234,108.78027 131.559336,109.351422 130.064853,111.667399 C128.626251,113.895808 128.80039,115.78048 130.405335,116.828682 C134.297489,119.368153 136.170141,108.045744 142.0688,111.894814 C144.371603,113.397847 144.676998,116.539838 142.649699,119.680522 C140.612004,122.839504 137.422907,123.900776 134.787419,122.180784 L136.05578,120.215079 C137.855658,121.191397 139.660733,120.624165 141.008367,118.534297 C142.356001,116.447042 142.194856,114.69699 140.643193,113.682769 C137.013549,111.314513 134.935568,122.528442 129.160366,118.757791 C126.717211,117.16327 126.1701,114.013437 128.433917,110.504183 C130.619761,107.117785 133.872536,105.996392 136.908285,107.979088" id="Fill-19"></path>
                    <polygon id="Fill-21" points="133 131.073012 124.577423 139 123.244903 137.466754 130.119351 130.996089 126.995514 127.405476 120.641288 133.385919 119.348882 131.900913 125.703107 125.920469 122.28218 121.988266 115.33252 128.529335 114 126.997392 122.496536 119"></polygon>
                    <polygon id="Fill-23" points="113.143611 143.753404 118.041044 141.241553 119 143.029609 107.357328 149 106.399624 147.211944 111.29831 144.698869 105 132.94669 106.845301 132"></polygon>
                    <polygon id="Fill-25" points="86.9672224 151.978384 92.7534143 151.326535 93 153.453483 79.2465857 155 79 152.873052 84.786192 152.222502 83.1655835 138.246716 85.3466139 138"></polygon>
                    <path d="M67.0830698,146.909348 C64.7156523,146.579647 63.5191743,147.411927 63.2791126,149.035738 C63.03522,150.679306 63.9814209,151.807947 66.4088538,152.145057 L70.9189502,152.771119 L71.6940432,147.550229 L67.0830698,146.909348 Z M72.7347364,155 L65.7167609,154.025714 C62.2179885,153.539188 60.6473718,151.605433 61.0662029,148.787535 C61.3292493,147.008135 62.4886965,145.732549 64.1257133,145.420135 C62.917743,144.933609 62.3980349,144.122321 62.4044195,142.54667 C62.3865425,140.30791 62.782389,139.445994 62.4171887,138.156824 L62.4401734,138 L64.6045599,138.300065 C64.8918679,139.279291 64.6390369,140.561052 64.6122215,142.135469 C64.5790214,144.306312 64.9889141,144.74221 67.3550547,145.070676 L71.967305,145.710322 L72.8956289,139.452168 L75,139.74359 L72.7347364,155 Z" id="Fill-27"></path>
                    <path d="M46.3096041,137.821837 L46.1871451,146.366997 L52.6406057,140.729519 L46.3096041,137.821837 Z M46.4478644,149 L44,147.876428 L44.2383343,130 L46.438647,131.009776 L46.3622747,135.562922 L54.3379146,139.22532 L57.7996873,136.226077 L60,137.235853 L46.4478644,149 Z" id="Fill-29"></path>
                    <polygon id="Fill-31" points="31.4083303 140 29.4667152 138.27444 31.2020735 122.615459 22.592761 132.167349 21 130.751505 31.5929429 119 33.5040015 120.699013 31.7457257 136.474296 40.4225173 126.847821 42 128.249759"></polygon>
                    <path d="M24.3379775,118.301751 L23.0558452,116.272764 C25.0163682,114.951776 25.3581828,112.868127 23.8861535,110.539803 C22.4691289,108.299979 20.6840969,107.668768 19.0509826,108.687816 C15.0945764,111.160603 24.5894273,117.602863 18.5913008,121.348484 C16.2496742,122.811333 13.2650169,121.772763 11.2691338,118.615404 C9.26277354,115.442429 9.64911575,112.100262 12.3299378,110.426576 L13.5780196,112.402202 C11.92788,113.629485 11.6790494,115.5062 13.0070189,117.605466 C14.3336787,119.70343 15.9916761,120.290392 17.5710955,119.305182 C21.2616458,117.000284 11.9514534,110.416164 17.8251646,106.748631 C20.3095414,105.198584 23.404208,106.01981 25.6345157,109.546784 C27.7862454,112.951421 27.4247862,116.374279 24.3379775,118.301751" id="Fill-33"></path>
                    <polygon id="Fill-35" points="5.51957831 106 2 94.9368004 3.88465225 94.349579 6.75520263 103.367806 11.3790389 101.926795 8.72829956 93.594948 10.6337623 93 13.2845016 101.331847 20.3496714 99.1284794 21 101.172164"></polygon>
                    <path d="M8.12514256,73.3525915 C4.35954081,73.4749653 1.96515194,75.9843011 2.07636672,79.6407235 C2.19019832,83.3603499 4.73505426,85.7540357 8.50196441,85.6316619 C12.4978462,85.5025642 15.0374685,82.9448168 14.9236369,79.2238456 C14.8111137,75.568768 12.1210243,73.2234938 8.12514256,73.3525915 M8.67859966,87.9944181 C3.69879416,88.1557902 0.160855617,84.80463 0.00515491934,79.7079618 C-0.149237369,74.6744977 3.17804728,71.1659998 8.15785279,71.0059725 C13.242331,70.8405661 16.8404564,74.1244879 16.9948487,79.1566072 C17.1505494,84.2532754 13.7630779,87.8303565 8.67859966,87.9944181" id="Fill-37"></path>
                    <path d="M10.131914,58.3519467 C10.7549288,56.0588831 10.0239595,54.7825672 8.35391566,54.3520638 C6.66306134,53.9177618 5.37020811,54.7167255 4.73158543,57.0667675 L3.54668675,61.4363768 L8.91840088,62.8177862 L10.131914,58.3519467 Z M1,62.9621315 L2.84563253,56.1627104 C3.76649781,52.7743955 5.97631435,51.4562954 8.87417853,52.2020792 C10.7042032,52.6731006 11.9034091,53.9658769 12.0373768,55.6144517 C12.689006,54.482481 13.599466,54.0671718 15.2473987,54.2608984 C17.5911829,54.5078047 18.448316,55.0003512 19.8387185,54.7914305 L20,54.8344808 L19.4316128,56.9300194 C18.3741785,57.0984221 17.0618154,56.6970411 15.4177848,56.4843217 C13.1507393,56.194365 12.6460843,56.5463649 12.0230696,58.8394285 L10.8108571,63.305268 L17.2504107,64.962706 L16.6976314,67 L1,62.9621315 Z" id="Fill-39"></path>
                    <polygon id="Fill-41" points="8 43.2694456 9.827571 40.3932101 23.9953681 42.9651912 15.873394 30.8788139 17.700965 28 31 36.7318436 29.8433416 38.5522131 18.8297215 31.319725 26.7487731 43.4215728 25.5388475 45.3283197 11.4306589 42.9677697 22.444279 50.1976794 21.299035 52"></polygon>
                </g>
            </g>
        </g>
    </g>
</svg>