<?xml version="1.0" encoding="utf-8"?>
<!-- Generator: Adobe Illustrator 26.0.1, SVG Export Plug-In . SVG Version: 6.00 Build 0)  -->
<svg version="1.1" id="REV" xmlns="http://www.w3.org/2000/svg" xmlns:xlink="http://www.w3.org/1999/xlink" x="0px" y="0px" viewBox="0 0 200.7 110.9" style="enable-background:new 0 0 200.7 110.9;" xml:space="preserve">
<style>
	.st0{fill:#FFFFFF;stroke:#FFFFFF;stroke-width:0.6;stroke-miterlimit:10;}

</style>
<path class="st0" d="M152.4,0.2h-32.1v12.5c-15.5-9.4-35.2-9.2-50.5,0.5C63.3,10,56,8.2,48.2,8.2c-26.5,0-48,21.5-48,48v32.1h84.2
	l22.2,22.2l14.3-14.3h31.5c26.5,0,48-21.5,48-48C200.4,21.8,178.9,0.2,152.4,0.2z M1.2,87.3V56.2c0-25.9,21.1-47,47-47
	c7.4,0,14.4,1.7,20.6,4.8c-2.6,1.7-5,3.7-7.3,6L38.8,42.6l44.7,44.7H1.2z M69.8,14.4C84.9,22.3,95.2,38,95.2,56.2v31.1H84.9
	L40.2,42.6l22-22C64.6,18.3,67.1,16.2,69.8,14.4z M85.9,88.3h10.4V56.2c0-18.3-10.3-34.2-25.4-42.3c15.1-9.3,34.4-9.3,49.5,0.1v81.5
	l-13.6,13.6L85.9,88.3z M121.3,14.6c2.6,1.7,5.1,3.7,7.4,6c18.3,18.3,18.3,48.1,0,66.5l-7.4,7.4V14.6z M152.4,95.2h-30.5l7.5-7.5
	c18.7-18.7,18.7-49.2,0-67.9c-2.5-2.5-5.2-4.7-8.1-6.5V1.2h31.1c25.9,0,47,21.1,47,47C199.4,74.1,178.3,95.2,152.4,95.2z"></path>
</svg>
