<svg version="1.1" id="REV" xmlns="http://www.w3.org/2000/svg" x="0" y="0" viewBox="0 0 200.7 110.9" style="enable-background:new 0 0 200.7 110.9" xml:space="preserve"><path d="M152.4.2h-32.1v12.5c-15.5-9.4-35.2-9.2-50.5.5-6.5-3.2-13.8-5-21.6-5-26.5 0-48 21.5-48 48v32.1h84.2l22.2 22.2 14.3-14.3h31.5c26.5 0 48-21.5 48-48 0-26.4-21.5-48-48-48zM1.2 87.3V56.2c0-25.9 21.1-47 47-47 7.4 0 14.4 1.7 20.6 4.8-2.6 1.7-5 3.7-7.3 6L38.8 42.6l44.7 44.7H1.2zm68.6-72.9C84.9 22.3 95.2 38 95.2 56.2v31.1H84.9L40.2 42.6l22-22c2.4-2.3 4.9-4.4 7.6-6.2zm16.1 73.9h10.4V56.2C96.3 37.9 86 22 70.9 13.9c15.1-9.3 34.4-9.3 49.5.1v81.5l-13.6 13.6-20.9-20.8zm35.4-73.7c2.6 1.7 5.1 3.7 7.4 6 18.3 18.3 18.3 48.1 0 66.5l-7.4 7.4V14.6zm31.1 80.6h-30.5l7.5-7.5c18.7-18.7 18.7-49.2 0-67.9-2.5-2.5-5.2-4.7-8.1-6.5V1.2h31.1c25.9 0 47 21.1 47 47s-21.1 47-47 47z" style="fill:#fff;stroke:#fff;stroke-width:.6;stroke-miterlimit:10"/></svg>