<?xml version="1.0" encoding="UTF-8"?>
<svg width="225px" height="129px" viewBox="0 0 225 129" version="1.1" xmlns="http://www.w3.org/2000/svg" xmlns:xlink="http://www.w3.org/1999/xlink">
    <title>DDD-Dimensions-Education-blk</title>
    <g id="Welcome" stroke="none" stroke-width="1" fill="none" fill-rule="evenodd">
        <g id="Dimensions---Landing-Page" transform="translate(-731.000000, -16226.000000)" fill="#FFFFFF">
            <g id="Footer" transform="translate(0.000000, 16108.000000)">
                <g id="DDD-Dimensions-Education-blk" transform="translate(731.000000, 118.000000)">
                    <path d="M9.35897912,94.7624446 C9.99563489,94.4369697 10.4157998,93.9464782 10.6198455,93.2873232 C10.8233338,92.6290798 10.9251245,91.6999721 10.9251245,90.5001823 C10.9251245,89.2666599 10.8233338,88.3248796 10.6198455,87.6752974 C10.4157998,87.0252593 9.99944275,86.5417878 9.37142433,86.224974 C8.74349877,85.9087072 7.7759306,85.7500724 6.46825544,85.7500724 L4.07487555,85.7500724 L4.07487555,95.2492894 L6.46825544,95.2492894 C7.75847017,95.2492894 8.72223048,95.0870078 9.35897912,94.7624446 Z M15,90.5001823 C15,96.1664539 12.1560851,99 6.46825544,99 L0,99 L0,82 L6.46825544,82 C12.1560851,82 15,84.8339107 15,90.5001823 L15,90.5001823 Z" id="Fill-1"></path>
                    <polygon id="Fill-2" points="24 99 28 99 28 82 24 82"></polygon>
                    <polyline id="Fill-3" points="59 82 59 99 54.9699977 99 54.9699977 90.8751622 54.5669057 90.8751622 50.8135929 97.8494417 47.1863153 97.8494417 43.4330943 90.8751622 43.0304616 90.8751622 43.0304616 99 39 99 39 82 43.0304616 82 48.798408 92.7749509 49.201592 92.7749509 54.9699977 82 59 82"></polyline>
                    <polyline id="Fill-4" points="75.192413 85.7500724 75.192413 88.6251006 81.4278571 88.6251006 81.4278571 92.3756288 75.192413 92.3756288 75.192413 95.2492894 83 95.2492894 83 99 71 99 71 82 83 82 83 85.7500724 75.192413 85.7500724"></polyline>
                    <polyline id="Fill-5" points="108 82 108 99 104.000182 99 97.3991612 89.2998455 96.9998177 89.2998455 96.9998177 99 93 99 93 82 96.9998177 82 103.599927 91.6999721 104.000182 91.6999721 104.000182 82 108 82"></polyline>
                    <path d="M120,92.9775356 C121.108562,93.7214871 122.404601,94.3051347 123.886306,94.7258216 C125.368011,95.1465084 126.704806,95.3572947 127.897597,95.3572947 C129.055972,95.3572947 129.867468,95.2678434 130.33118,95.0898264 C130.793986,94.9126951 131.025842,94.5557755 131.025842,94.020839 C131.025842,93.6816325 130.893612,93.4061933 130.628245,93.1954071 C130.363785,92.9855065 129.933583,92.7915477 129.33764,92.6126451 C128.741698,92.4346281 127.780763,92.1999291 126.456648,91.9085481 C124.966791,91.5848407 123.782152,91.2329693 122.905446,90.8520485 C122.027835,90.4721904 121.365777,89.9901275 120.918367,89.4073655 C120.471863,88.8246035 120.248158,88.0716184 120.248158,87.1489414 C120.248158,85.384005 120.839573,84.0851012 122.024212,83.251167 C123.20704,82.4172328 124.867166,82 127.002777,82 C128.029827,82 129.191825,82.1339113 130.492392,82.4011138 C131.792054,82.6678736 132.84718,82.9958322 133.658676,83.3845469 L133.658676,87.0757862 C132.466791,86.6388032 131.212414,86.2906516 129.89645,86.0316857 C128.580485,85.7727197 127.508151,85.642971 126.680353,85.642971 C125.902367,85.642971 125.297367,85.7119637 124.867166,85.8495061 C124.436964,85.9870486 124.22141,86.2906516 124.22141,86.7602267 C124.22141,87.1650603 124.47772,87.4727374 124.991245,87.6829037 C125.50477,87.8936014 126.398684,88.1442422 127.672986,88.4358889 C129.643763,88.8728718 131.091957,89.2496301 132.019382,89.565101 C132.946806,89.8806604 133.674979,90.3466043 134.204806,90.9616042 C134.734633,91.5770469 135,92.4514556 135,93.5842103 C135,95.4139767 134.345188,96.7743451 133.03828,97.6644299 C131.729562,98.5545148 130.016,99 127.897597,99 C126.638691,99 125.210421,98.793642 123.612788,98.3809261 C122.015155,97.9682101 120.810591,97.4536437 120,96.8389981 L120,92.9775356" id="Fill-6"></path>
                    <polygon id="Fill-7" points="145 99 149 99 149 82 145 82"></polygon>
                    <path d="M170.024331,94.1917707 C170.771297,93.4141643 171.144779,92.1839873 171.144779,90.5002657 C171.144779,88.8162784 170.771297,87.5859243 170.024331,86.808495 C169.276487,86.0316857 168.268523,85.642971 166.999561,85.642971 C165.730598,85.642971 164.722634,86.0316857 163.975669,86.808495 C163.228703,87.5859243 162.855221,88.8162784 162.855221,90.5002657 C162.855221,92.1839873 163.228703,93.4141643 163.975669,94.1917707 C164.722634,94.9684915 165.730598,95.3572947 166.999561,95.3572947 C168.268523,95.3572947 169.276487,94.9684915 170.024331,94.1917707 Z M162.734827,97.8947006 C161.530016,97.1578344 160.605536,96.1464147 159.963146,94.8595557 C159.320756,93.5726968 159,92.1193344 159,90.5002657 C159,88.881197 159.320756,87.4281003 159.963146,86.1411528 C160.605536,84.8536739 161.530016,83.8422542 162.734827,83.1053879 C163.939639,82.3689645 165.361509,82 166.999561,82 C168.638491,82 170.060361,82.3689645 171.265173,83.1053879 C172.469984,83.8422542 173.393585,84.8536739 174.035975,86.1411528 C174.678365,87.4281003 175,88.881197 175,90.5002657 C175,92.1193344 174.678365,93.5726968 174.035975,94.8595557 C173.393585,96.1464147 172.469984,97.1578344 171.265173,97.8947006 C170.060361,98.6324525 168.638491,99 166.999561,99 C165.361509,99 163.939639,98.6324525 162.734827,97.8947006 L162.734827,97.8947006 Z" id="Fill-8"></path>
                    <polyline id="Fill-9" points="200 82 200 99 195.999514 99 189.399806 89.2998455 189.000486 89.2998455 189.000486 99 185 99 185 82 189.000486 82 195.599283 91.6999721 195.999514 91.6999721 195.999514 82 200 82"></polyline>
                    <path d="M210,92.9775356 C211.108562,93.7214871 212.404601,94.3051347 213.886306,94.7258216 C215.368011,95.1465084 216.704806,95.3572947 217.897597,95.3572947 C219.055972,95.3572947 219.867468,95.2678434 220.33118,95.0898264 C220.793986,94.9126951 221.025842,94.5557755 221.025842,94.020839 C221.025842,93.6816325 220.893612,93.4061933 220.628245,93.1954071 C220.363785,92.9855065 219.933583,92.7915477 219.33764,92.6126451 C218.741698,92.4346281 217.780763,92.1999291 216.456648,91.9085481 C214.965886,91.5848407 213.782152,91.2329693 212.905446,90.8520485 C212.026929,90.4721904 211.365777,89.9901275 210.918367,89.4073655 C210.471863,88.8246035 210.248158,88.0716184 210.248158,87.1489414 C210.248158,85.384005 210.839573,84.0851012 212.023306,83.251167 C213.20704,82.4172328 214.867166,82 217.002777,82 C218.028922,82 219.191825,82.1339113 220.492392,82.4011138 C221.792054,82.6678736 222.84718,82.9958322 223.658676,83.3845469 L223.658676,87.0757862 C222.465886,86.6388032 221.212414,86.2906516 219.89645,86.0316857 C218.580485,85.7727197 217.507246,85.642971 216.679447,85.642971 C215.901461,85.642971 215.297367,85.7119637 214.867166,85.8495061 C214.436964,85.9870486 214.22141,86.2906516 214.22141,86.7602267 C214.22141,87.1650603 214.47772,87.4727374 214.991245,87.6829037 C215.50477,87.8936014 216.398684,88.1442422 217.672986,88.4358889 C219.643763,88.8728718 221.091957,89.2496301 222.019382,89.565101 C222.946806,89.8806604 223.674979,90.3466043 224.204806,90.9616042 C224.734633,91.5770469 225,92.4514556 225,93.5842103 C225,95.4139767 224.345188,96.7743451 223.03828,97.6644299 C221.729562,98.5545148 220.016,99 217.897597,99 C216.638691,99 215.210421,98.793642 213.612788,98.3809261 C212.015155,97.9682101 210.810591,97.4536437 210,96.8389981 L210,92.9775356" id="Fill-10"></path>
                    <polyline id="Fill-11" points="18.192133 115.74996 18.192133 118.625477 24.4280459 118.625477 24.4280459 122.375437 18.192133 122.375437 18.192133 125.25004 26 125.25004 26 129 14 129 14 112 26 112 26 115.74996 18.192133 115.74996"></polyline>
                    <path d="M46.3592345,124.763021 C46.9957183,124.437732 47.4159763,123.946144 47.6196362,123.287342 C47.8233892,122.630368 47.9254054,121.700188 47.9254054,120.500457 C47.9254054,119.267831 47.8233892,118.325773 47.6196362,117.675195 C47.4159763,117.025531 46.9998138,116.54308 46.3718004,116.226015 C45.7435076,115.908949 44.7757507,115.74996 43.4687157,115.74996 L41.0746877,115.74996 L41.0746877,125.25004 L43.4687157,125.25004 C44.7588101,125.25004 45.7224715,125.087396 46.3592345,124.763021 Z M52,120.500457 C52,126.166514 49.1560214,129 43.4687157,129 L37,129 L37,112 L43.4687157,112 C49.1560214,112 52,114.833486 52,120.500457 L52,120.500457 Z" id="Fill-12"></path>
                    <path d="M72.9521313,127.373749 C71.5868555,128.457916 69.7696437,129 67.5001353,129 C65.2303563,129 63.412874,128.457916 62.0478687,127.373749 C60.6824125,126.290481 60,124.696647 60,122.594046 L60,112 L63.9474966,112 L63.9474966,121.609831 C63.9474966,122.479686 64.0460532,123.177552 64.2434371,123.703427 C64.4407307,124.228402 64.7942002,124.627311 65.3042963,124.897452 C65.8139416,125.168494 66.545948,125.304465 67.5001353,125.304465 C68.4537815,125.304465 69.1857879,125.168494 69.6957037,124.897452 C70.2052588,124.627311 70.5592693,124.228402 70.7565629,123.703427 C70.9539468,123.177552 71.0526838,122.479686 71.0526838,121.609831 L71.0526838,112 L75,112 L75,122.594046 C75,124.696647 74.3170465,126.290481 72.9521313,127.373749" id="Fill-13"></path>
                    <path d="M84.7883318,116.249112 C85.3137063,114.970917 86.1468696,113.942147 87.2882718,113.165466 C88.4292239,112.387897 89.8948891,112 91.6847273,112 C93.2448267,112 94.5618638,112.283156 95.6376392,112.850355 C96.7134146,113.416667 97.5299237,114.194236 98.0889668,115.181287 C98.6471097,116.169225 98.9504873,117.286759 99,118.532999 L95.0587911,118.532999 C94.8454364,117.464286 94.4925461,116.715121 94.00012,116.285505 C93.507694,115.857665 92.7352962,115.642857 91.6847273,115.642857 C90.8304086,115.642857 90.1369611,115.768901 89.6033945,116.019215 C89.0696478,116.270416 88.6592328,116.747964 88.3720592,117.451859 C88.0845256,118.156642 87.9410289,119.172097 87.9410289,120.5 C87.9410289,121.827903 88.0845256,122.843358 88.3720592,123.547254 C88.6592328,124.252036 89.0696478,124.730472 89.6033945,124.980785 C90.1369611,125.231986 90.8304086,125.357143 91.6847273,125.357143 C92.7352962,125.357143 93.507694,125.143223 94.00012,124.713607 C94.4925461,124.284879 94.8454364,123.535714 95.0587911,122.467001 L99,122.467001 C98.9504873,123.714129 98.6471097,124.830775 98.0889668,125.818713 C97.5299237,126.806652 96.7134146,127.583333 95.6376392,128.150533 C94.5618638,128.717732 93.2448267,129 91.6847273,129 C89.8948891,129 88.4292239,128.611216 87.2882718,127.834534 C86.1468696,127.056965 85.3137063,126.029083 84.7883318,124.75 C84.2626872,123.471805 84,122.05425 84,120.5 C84,118.94575 84.2626872,117.529083 84.7883318,116.249112" id="Fill-14"></path>
                    <path d="M118.930972,122.500618 L117.198257,116.20043 L116.801743,116.20043 L115.068123,122.500618 L118.930972,122.500618 Z M119.972049,126.250578 L114.027951,126.250578 L113.259364,129 L109,129 L113.97816,112 L120.02184,112 L125,129 L120.739731,129 L119.972049,126.250578 L119.972049,126.250578 Z" id="Fill-15"></path>
                    <polyline id="Fill-16" points="146 115.74996 141.507973 115.74996 141.507973 129 137.492944 129 137.492944 115.74996 133 115.74996 133 112 146 112 146 115.74996"></polyline>
                    <polygon id="Fill-17" points="156 129 160 129 160 112 156 112"></polygon>
                    <path d="M182.023064,124.191677 C182.770793,123.414108 183.144218,122.183845 183.144218,120.5 C183.144218,118.817043 182.770793,117.585892 182.023064,116.808323 C181.277096,116.030754 180.268674,115.642857 178.99956,115.642857 C177.730445,115.642857 176.722904,116.030754 175.975175,116.808323 C175.228326,117.585892 174.854902,118.817043 174.854902,120.5 C174.854902,122.183845 175.228326,123.414108 175.975175,124.191677 C176.722904,124.968358 177.730445,125.357143 178.99956,125.357143 C180.268674,125.357143 181.277096,124.968358 182.023064,124.191677 Z M174.734243,127.894893 C173.529421,127.158156 172.605549,126.146251 171.963505,124.859179 C171.320581,123.572107 171,122.119048 171,120.5 C171,118.880952 171.320581,117.427893 171.963505,116.139933 C172.605549,114.853749 173.529421,113.841844 174.734243,113.105107 C175.939065,112.368369 177.360544,112 178.99956,112 C180.637695,112 182.059173,112.368369 183.264876,113.105107 C184.469698,113.841844 185.393571,114.853749 186.035614,116.139933 C186.678538,117.427893 187,118.880952 187,120.5 C187,122.119048 186.678538,123.572107 186.035614,124.859179 C185.393571,126.146251 184.469698,127.158156 183.264876,127.894893 C182.059173,128.631631 180.637695,129 178.99956,129 C177.360544,129 175.939065,128.631631 174.734243,127.894893 L174.734243,127.894893 Z" id="Fill-18"></path>
                    <polyline id="Fill-19" points="210 112 210 129 206.000305 129 199.399939 119.300726 198.999695 119.300726 198.999695 129 195 129 195 112 198.999695 112 205.600061 121.700188 206.000305 121.700188 206.000305 112 210 112"></polyline>
                    <path d="M58.5422637,47.4629163 L109.457827,47.4629163 L109.457827,30.7518601 C109.457827,16.8481516 98.0375771,5.53708372 84.0002278,5.53708372 C69.962514,5.53708372 58.5422637,16.8481516 58.5422637,30.7518601 L58.5422637,47.4629163 Z M110,48 L58,48 L58,30.7518601 C58,16.5520381 69.6635446,5 84.0002278,5 C98.3373666,5 110,16.5520381 110,30.7518601 L110,48 L110,48 Z" id="Fill-20"></path>
                    <path d="M79.7714063,24.0358235 L115.97381,60.2287889 L127.970511,48.2349408 C137.950506,38.2556401 137.950506,22.0199937 127.970511,12.0419754 C123.135363,7.20722672 116.707741,4.54522488 109.86963,4.54522488 C103.032436,4.54522488 96.6029809,7.20722672 91.7687491,12.0419754 L79.7714063,24.0358235 Z M115.97381,61 L79,24.0358235 L91.3826337,11.6564156 C96.3207703,6.71916252 102.885833,4 109.86963,4 C116.852511,4 123.417574,6.71916252 128.35626,11.6564156 C138.547913,21.8471376 138.547913,38.4284045 128.35626,48.6205006 L115.97381,61 L115.97381,61 Z" id="Fill-21"></path>
                    <path d="M123.537895,51.4577268 L140.249638,51.4577268 C154.151873,51.4577268 165.463008,40.0373675 165.463008,26.0006834 C165.463008,11.9626325 154.151873,0.542273204 140.249638,0.542273204 L123.537895,0.542273204 L123.537895,51.4577268 Z M140.249638,52 L123,52 L123,0 L140.249638,0 C154.447896,0 166,11.663749 166,26.0006834 C166,40.336251 154.447896,52 140.249638,52 L140.249638,52 Z" id="Fill-22"></path>
                </g>
            </g>
        </g>
    </g>
</svg>