<svg width="143" height="30" xmlns="http://www.w3.org/2000/svg"><g id="Symbols" stroke="none" stroke-width="1" fill="none" fill-rule="evenodd"><g id="Sticky-Nav" transform="translate(-471 -28)" fill="#FFF"><g id="Group-9" transform="translate(471 28)"><path d="M5.616 8.258c.382-.21.634-.528.756-.955.123-.426.184-1.027.184-1.803 0-.798-.061-1.407-.184-1.828a1.5 1.5 0 0 0-.749-.938c-.377-.205-.957-.307-1.742-.307H2.445v6.146h1.436c.774 0 1.352-.105 1.735-.315M9 5.5C9 9.166 7.294 11 3.881 11H0V0h3.881C7.294 0 9 1.834 9 5.5" id="Fill-1"/><path id="Fill-2" d="M15 11h3V0h-3z"/><path id="Fill-3" d="M38 0v11h-2.62V5.743h-.261l-2.44 4.512H30.32l-2.44-4.512h-.261V11H25V0h2.62l3.75 6.972h.26L35.38 0H38"/><path id="Fill-4" d="M47.446 2.427v1.86h3.637v2.427h-3.637v1.86H52V11h-7V0h7v2.427h-4.554"/><path id="Fill-5" d="M69 0v11h-2.666l-4.402-6.276h-.266V11H59V0h2.666l4.4 6.276h.268V0H69"/><path d="M76 7.103c.74.482 1.603.859 2.591 1.132.988.271 1.88.408 2.674.408.773 0 1.313-.058 1.622-.173.309-.115.464-.346.464-.692a.64.64 0 0 0-.266-.534c-.175-.136-.463-.261-.86-.377a30.379 30.379 0 0 0-1.921-.455c-.992-.21-1.782-.438-2.367-.685-.585-.245-1.027-.557-1.325-.934-.297-.377-.445-.864-.445-1.461 0-1.143.392-1.983 1.184-2.523C78.138.27 79.246 0 80.669 0c.685 0 1.459.087 2.326.26.867.172 1.57.385 2.11.636v2.388a16.908 16.908 0 0 0-2.508-.675c-.877-.168-1.592-.252-2.143-.252-.52 0-.922.045-1.208.134-.288.089-.432.285-.432.589 0 .262.171.462.514.597.342.136.937.299 1.787.488 1.315.282 2.28.526 2.897.73.619.204 1.104.505 1.458.904.353.398.53.964.53 1.696 0 1.184-.437 2.065-1.307 2.641-.874.575-2.015.864-3.428.864-.84 0-1.792-.134-2.856-.4-1.065-.267-1.869-.601-2.409-.998V7.103" id="Fill-6"/><path id="Fill-7" d="M92 11h3V0h-3z"/><path d="M108.58 7.889c.512-.504.77-1.3.77-2.389 0-1.09-.258-1.885-.77-2.389-.515-.503-1.208-.754-2.08-.754-.872 0-1.565.251-2.08.754-.512.504-.77 1.3-.77 2.39 0 1.088.258 1.884.77 2.388.515.503 1.208.754 2.08.754.872 0 1.565-.251 2.08-.754m-5.012 2.396a4.85 4.85 0 0 1-1.906-1.964c-.442-.833-.662-1.774-.662-2.82 0-1.048.22-1.988.662-2.821a4.848 4.848 0 0 1 1.906-1.965C104.396.238 105.374 0 106.5 0s2.104.238 2.933.715a4.85 4.85 0 0 1 1.904 1.965c.442.833.663 1.773.663 2.82s-.221 1.988-.663 2.821a4.852 4.852 0 0 1-1.904 1.964c-.829.477-1.807.715-2.933.715s-2.104-.238-2.932-.715" id="Fill-8"/><path id="Fill-9" d="M127 0v11h-2.667l-4.4-6.276h-.266V11H117V0h2.667l4.4 6.276h.266V0H127"/><path d="M133 7.103c.74.482 1.603.859 2.591 1.132.988.271 1.879.408 2.674.408.772 0 1.313-.058 1.622-.173.309-.115.464-.346.464-.692a.642.642 0 0 0-.266-.534c-.176-.136-.463-.261-.86-.377a30.379 30.379 0 0 0-1.921-.455c-.994-.21-1.782-.438-2.367-.685-.585-.245-1.027-.557-1.325-.934-.297-.377-.446-.864-.446-1.461 0-1.143.393-1.983 1.183-2.523.79-.539 1.896-.809 3.32-.809.683 0 1.459.087 2.326.26.866.172 1.57.385 2.11.636v2.388a16.967 16.967 0 0 0-2.508-.675c-.877-.168-1.593-.252-2.144-.252-.52 0-.922.045-1.208.134-.287.089-.43.285-.43.589 0 .262.17.462.513.597.342.136.938.299 1.787.488 1.314.282 2.28.526 2.897.73.619.204 1.104.505 1.458.904.353.398.53.964.53 1.696 0 1.184-.437 2.065-1.308 2.641-.873.575-2.014.864-3.427.864-.84 0-1.792-.134-2.856-.4-1.065-.267-1.869-.601-2.409-.998V7.103" id="Fill-10"/><path id="Fill-11" d="M11.446 21.426v1.861h3.637v2.427h-3.637v1.86H16V30H9V19h7v2.426h-4.554"/><path d="M28.616 27.258c.382-.21.634-.529.756-.955.122-.424.183-1.027.183-1.803 0-.797-.06-1.407-.183-1.828a1.503 1.503 0 0 0-.749-.938c-.377-.204-.958-.308-1.742-.308h-1.436v6.147h1.436c.775 0 1.352-.105 1.735-.315M32 24.5c0 3.667-1.706 5.5-5.12 5.5H23V19h3.88c3.414 0 5.12 1.833 5.12 5.5" id="Fill-12"/><path d="M46.635 28.947C45.725 29.65 44.513 30 43 30s-2.725-.351-3.635-1.053c-.91-.7-1.365-1.731-1.365-3.092V19h2.632v6.218c0 .563.066 1.015.197 1.355.13.339.367.598.707.772.34.176.828.263 1.464.263s1.124-.087 1.464-.263c.34-.174.576-.433.707-.772.131-.34.198-.792.198-1.355V19H48v6.855c0 1.36-.455 2.392-1.365 3.092" id="Fill-14"/><path d="M53.525 21.75a4.405 4.405 0 0 1 1.667-1.996c.761-.503 1.738-.754 2.931-.754 1.04 0 1.919.183 2.636.55.717.366 1.261.87 1.634 1.509.372.638.575 1.362.607 2.168h-2.627c-.142-.692-.378-1.176-.706-1.454-.329-.277-.844-.416-1.544-.416-.57 0-1.031.081-1.388.244-.355.162-.629.47-.82.927-.192.456-.288 1.113-.288 1.972 0 .86.096 1.516.288 1.971.191.456.465.766.82.928.357.163.818.244 1.388.244.7 0 1.215-.138 1.544-.416.328-.278.564-.763.706-1.455H63c-.032.807-.235 1.53-.607 2.17-.373.639-.917 1.141-1.634 1.508-.717.367-1.596.55-2.636.55-1.193 0-2.17-.251-2.93-.754a4.405 4.405 0 0 1-1.668-1.996c-.35-.827-.525-1.744-.525-2.75s.175-1.923.525-2.75" id="Fill-15"/><path d="m75.207 25.796-1.083-4.077h-.248l-1.083 4.077h2.414Zm.65 2.426h-3.714L71.663 30H69l3.112-11h3.777L79 30h-2.663l-.48-1.778Z" id="Fill-17"/><path id="Fill-18" d="M92 21.426h-2.764V30h-2.47v-8.574H84V19h8v2.426"/><path id="Fill-19" d="M99 30h3V19h-3z"/><path d="M115.578 26.888c.514-.503.77-1.298.77-2.388 0-1.089-.256-1.886-.77-2.389-.512-.503-1.206-.754-2.079-.754-.872 0-1.565.251-2.079.754-.513.503-.77 1.3-.77 2.389 0 1.09.257 1.885.77 2.388.514.503 1.207.754 2.08.754.872 0 1.566-.251 2.078-.754m-5.01 2.397a4.84 4.84 0 0 1-1.905-1.965c-.443-.832-.663-1.772-.663-2.82 0-1.048.22-1.989.663-2.821a4.843 4.843 0 0 1 1.905-1.964c.827-.477 1.805-.715 2.931-.715 1.127 0 2.104.238 2.933.715a4.843 4.843 0 0 1 1.904 1.964c.442.832.664 1.773.664 2.821 0 1.048-.222 1.988-.664 2.82a4.84 4.84 0 0 1-1.904 1.965c-.83.477-1.806.715-2.933.715-1.126 0-2.104-.238-2.931-.715" id="Fill-21"/><path id="Fill-23" d="M134 19v11h-2.667l-4.4-6.276h-.266V30H124V19h2.667l4.4 6.276h.266V19H134"/></g></g></g></svg>