<svg width="280" height="161" xmlns="http://www.w3.org/2000/svg"><g id="Welcome" stroke="none" stroke-width="1" fill="none" fill-rule="evenodd"><g id="Dimensions---Landing-Page" transform="translate(-109 -5198)" fill="#027756" fill-rule="nonzero"><g id="Photo-Gallery-+-Journey" transform="translate(0 3986)"><g id="Dimensions-Education-Logo" transform="translate(109 1212)"><path d="M19 112c0 7.39-3.595 11-10.784 11H0v-22h8.216C15.406 101 19 104.61 19 112m-7.19 5.5c.857-.344 1.37-1.031 1.541-1.89.343-.86.343-2.063.343-3.61 0-1.547-.171-2.75-.343-3.61-.342-.859-.856-1.546-1.54-1.89a9.517 9.517 0 0 0-3.595-.688h-3.08v12.204h3.08c1.54 0 2.739-.172 3.595-.516" id="Shape"/><path id="Rectangle" d="M31 101h5v22h-5z"/><path id="Path" d="M75 102v21h-5.167v-10.087h-.5l-4.666 8.764h-4.5l-4.667-8.764H55V123h-5v-21h5l7.167 13.394h.5L69.833 102zM93.884 106.63v3.472h7.325v4.796h-7.325v3.472H103V123H89v-21h14v4.63zM136 102v21h-5.044l-8.407-11.906h-.505V123H117v-21h5.044l8.407 12.07h.505V102zM150.168 115.73c1.345.992 3.027 1.653 4.876 2.315 1.85.496 3.531.827 5.044.827 1.514 0 2.523-.165 3.027-.33.673-.166.84-.662.84-1.324 0-.496-.167-.827-.504-.992-.336-.331-.84-.497-1.681-.828-.84-.165-2.018-.496-3.7-.827-1.849-.496-3.362-.827-4.539-1.323-1.177-.496-2.018-1.158-2.522-1.82-.505-.826-.84-1.654-.84-2.811 0-2.316.672-3.97 2.185-4.963 1.513-.992 3.7-1.654 6.39-1.654 1.344 0 2.858.165 4.371.496 1.681.331 3.027.827 4.035 1.324v4.797c-1.513-.497-3.194-.993-4.708-1.324-1.68-.33-3.026-.496-4.035-.496-1.009 0-1.681.165-2.354.33-.504.166-.84.497-.84 1.159 0 .496.336.992 1.008 1.158.673.33 1.85.661 3.363.992 2.522.496 4.372.993 5.549 1.489 1.177.33 2.186.992 2.858 1.82.673.826 1.009 1.984 1.009 3.308 0 2.315-.84 4.135-2.522 5.293-1.682 1.158-3.867 1.654-6.558 1.654-1.681 0-3.362-.33-5.38-.827-2.018-.496-3.531-1.158-4.54-1.985v-5.459h.168Z"/><path id="Rectangle" d="M182 101h5v22h-5z"/><path d="M204 121.5c-1.5-1-2.833-2.333-3.667-3.833A12.36 12.36 0 0 1 199 112c0-2.167.333-4 1.333-5.667.834-1.666 2-3 3.667-3.833 1.5-1 3.333-1.5 5.5-1.5s4 .5 5.5 1.5 2.833 2.333 3.667 3.833A12.36 12.36 0 0 1 220 112c0 2.167-.5 4-1.333 5.667-.834 1.666-2 3-3.667 3.833-1.5 1-3.333 1.5-5.5 1.5-2.167-.167-4-.667-5.5-1.5m9.5-4.833c1-1 1.5-2.667 1.5-4.834 0-2.166-.5-3.833-1.5-4.833s-2.333-1.5-4-1.5c-1.667 0-3 .5-4 1.5s-1.5 2.667-1.5 4.833c0 2.167.5 3.834 1.5 4.834 1 1 2.333 1.5 4 1.5 1.667 0 3-.5 4-1.5" id="Shape"/><path id="Path" d="M250 102v21h-5.044l-8.407-11.906h-.505V123H231v-21h5.044l8.407 12.07h.505V102zM261.168 115.73c1.345.992 3.027 1.653 4.876 2.315 1.85.496 3.531.827 5.044.827 1.514 0 2.523-.165 3.027-.33.673-.166.84-.662.84-1.324 0-.496-.167-.827-.504-.992-.336-.331-.84-.497-1.681-.828-.84-.165-2.018-.496-3.7-.827-1.849-.496-3.362-.827-4.539-1.323-1.177-.496-2.018-1.158-2.522-1.82-.505-.826-.84-1.654-.84-2.811 0-2.316.672-3.97 2.185-4.963 1.513-.992 3.7-1.654 6.39-1.654 1.344 0 2.858.165 4.371.496 1.681.331 3.027.827 4.035 1.324v4.797c-1.513-.497-3.194-.993-4.708-1.324-1.68-.33-3.026-.496-4.035-.496-1.009 0-1.681.165-2.354.33-.504.166-.84.497-.84 1.159 0 .496.336.992 1.008 1.158.673.33 1.85.661 3.363.992 2.522.496 4.372.993 5.549 1.489 1.177.33 2.186.992 2.858 1.82.673.826 1.009 1.984 1.009 3.308 0 2.315-.84 4.135-2.522 5.293-1.682 1.158-3.867 1.654-6.558 1.654-1.681 0-3.362-.33-5.38-.827-2.018-.496-3.531-1.158-4.54-1.985v-5.459h.168ZM22.884 142.813v3.78h7.163v4.813h-7.163v3.781H32V160H18v-22h14v4.813z"/><path d="M64 149c0 7.219-3.595 11-10.784 11H45v-22h8.216C60.576 138 64 141.61 64 149m-7.018 5.5c.856-.344 1.37-1.031 1.54-1.89.172-.86.343-2.063.343-3.61 0-1.547-.171-2.75-.342-3.61-.343-.859-.856-1.374-1.541-1.89a9.517 9.517 0 0 0-3.595-.688h-3.08v12.204h3.08c1.54.172 2.74-.172 3.595-.516" id="Shape"/><path d="M92.333 158.953c-1.666 1.365-4 2.047-6.833 2.047s-5.167-.682-6.833-2.047C77 157.59 76 155.543 76 152.814V139h5v12.45c0 1.193.167 2.046.333 2.728.167.682.667 1.194 1.334 1.535.666.341 1.5.512 2.833.512 1.167 0 2.167-.17 2.833-.512.667-.34 1.167-.853 1.334-1.535.166-.682.333-1.535.333-2.728V139h5v13.814c-.167 2.729-1 4.775-2.667 6.14M107 144.459c.667-1.654 1.667-2.978 3.167-3.97 1.5-.993 3.333-1.489 5.5-1.489 2 0 3.666.33 5 1.158 1.333.662 2.333 1.654 3.166 2.977.667 1.324 1.167 2.647 1.167 4.301h-5c-.333-1.323-.667-2.316-1.333-2.812-.667-.496-1.667-.827-3-.827-1.167 0-2 .165-2.667.496-.667.331-1.167.993-1.5 1.82-.333.827-.5 2.15-.5 3.804s.167 2.978.5 3.97c.333.827.833 1.489 1.5 1.82.667.33 1.5.496 2.667.496 1.333 0 2.333-.33 3-.827.666-.496 1-1.489 1.333-2.812h5c0 1.654-.5 2.977-1.167 4.3-.666 1.324-1.666 2.316-3.166 2.978-1.334.662-3 1.158-5 1.158-2.334 0-4.167-.496-5.5-1.489-1.5-.992-2.5-2.316-3.167-3.97-.667-1.654-1-3.473-1-5.458 0-1.985.333-3.97 1-5.624" id="Path"/><path d="M149.607 156.528h-7.377l-.984 3.472H136l6.23-21h7.54l6.23 21h-5.246l-1.147-3.472Zm-1.312-4.63-2.131-7.772h-.492l-2.131 7.772h4.754Z" id="Shape"/><path id="Path" d="M182 142.813h-5.443V160h-4.949v-17.188H166V138h16z"/><path id="Rectangle" d="M195 138h5v22h-5z"/><path d="M218 158.5c-1.5-1-2.833-2.333-3.667-3.833A12.36 12.36 0 0 1 213 149c0-2.167.333-4 1.333-5.667.834-1.666 2-3 3.667-3.833 1.5-1 3.333-1.5 5.5-1.5s4 .5 5.5 1.5 2.833 2.333 3.667 3.833A12.36 12.36 0 0 1 234 149c0 2.167-.5 4-1.333 5.667-.834 1.666-2 3-3.667 3.833-1.5 1-3.333 1.5-5.5 1.5s-3.833-.5-5.5-1.5m9.5-4.833c1-1 1.5-2.5 1.5-4.667s-.5-3.667-1.5-4.833c-1-1-2.333-1.5-4-1.5-1.667 0-3 .5-4 1.5S218 146.833 218 149c0 2.167.5 3.667 1.5 4.667s2.333 1.5 4 1.5c1.667 0 3-.5 4-1.5" id="Shape"/><path id="Path" d="M263 138v22h-5.09l-8.312-12.547h-.509V160H244v-22h5.09l8.312 12.547h.509V138z"/><path d="M175.327 0h-22.225v8.203c-4.975-2.846-10.448-4.353-16.42-4.353-6.302 0-12.272 1.842-17.414 5.022-4.312-2.176-9.122-3.515-14.429-3.515C86.761 5.357 72 20.256 72 38.502v22.265h57.22L144.312 76l9.786-9.877h21.063c18.078 0 32.839-14.898 32.839-33.145C208 14.731 193.405 0 175.327 0Zm0 64.784H155.59l4.312-4.352c12.771-12.89 12.771-33.983 0-46.873-1.658-1.674-3.482-3.18-5.307-4.352v-7.7h20.566c17.249 0 31.346 14.229 31.346 31.638.166 17.41-13.931 31.64-31.18 31.64Zm-70.488-57.92c4.644 0 9.122 1.004 13.102 2.845-1.492 1.172-2.985 2.344-4.312 3.683L98.04 29.128l29.854 29.965h-54.4v-20.59c0-17.41 14.097-31.64 31.346-31.64Zm9.785 7.7c1.493-1.507 3.152-2.846 4.81-4.018 9.951 5.357 16.751 15.903 16.751 27.956V59.26h-6.468L99.863 29.295l14.761-14.731Zm23.054 46.37V38.502c0-12.387-6.8-23.101-16.751-28.793 4.81-2.846 10.117-4.352 15.756-4.352 5.805 0 11.444 1.674 16.42 4.687v55.242l-8.79 8.873-12.937-13.225h6.302Zm21.23-1.674-4.313 4.352V11.048c1.493 1.005 2.985 2.177 4.312 3.516 12.273 12.388 12.273 32.476 0 44.696Z" id="Shape"/></g></g></g></g></svg>