<svg width="40" height="40" xmlns="http://www.w3.org/2000/svg"><g id="Symbols" stroke="none" stroke-width="1" fill="none" fill-rule="evenodd"><g id="subscription-+-socials" transform="translate(-890 -229)" fill="#fff"><g id="socials" transform="translate(835 229)"><g id="fb" transform="translate(55)"><rect id="Rectangle" stroke="#fff" fill-opacity="0" x=".5" y=".5" width="39" height="39" rx="19.5"/><path d="M18.789 27v-4.76H16.82V20h1.969v-1.707c0-1.943 1.156-3.015 2.927-3.015.69 0 1.404.1 1.648.137l.077.012.01.002v1.906h-.977c-.963 0-1.263.598-1.263 1.21V20h2.15l-.344 2.24H21.21V27H25.5a1.5 1.5 0 0 0 1.5-1.5v-11a1.5 1.5 0 0 0-1.5-1.5h-11a1.5 1.5 0 0 0-1.5 1.5v11a1.5 1.5 0 0 0 1.5 1.5h4.289Z" id="facebook-square" fill-rule="nonzero"/></g></g></g></g></svg>