<?xml version="1.0" encoding="UTF-8"?>
<svg width="40px" height="40px" viewBox="0 0 40 40" version="1.1" xmlns="http://www.w3.org/2000/svg" xmlns:xlink="http://www.w3.org/1999/xlink">
    <title>fb</title>
    <g id="Symbols" stroke="none" stroke-width="1" fill="none" fill-rule="evenodd">
        <g id="subscription-+-socials" transform="translate(-890.000000, -229.000000)" fill="#ffffff">
            <g id="socials" transform="translate(835.000000, 229.000000)">
                <g id="fb" transform="translate(55.000000, 0.000000)">
                    <rect id="Rectangle" stroke="#ffffff" fill-opacity="0" x="0.5" y="0.5" width="39" height="39" rx="19.5"></rect>
                    <path d="M18.7890487,26.9999976 L18.7890487,22.2403349 L16.8203034,22.2403349 L16.8203034,20.0000143 L18.7890487,20.0000143 L18.7890487,18.2925294 C18.7890487,16.3503343 19.9452959,15.2775219 21.7162268,15.2775219 C22.4053178,15.2775219 23.1200147,15.3773671 23.3638002,15.414809 L23.4410712,15.4270681 C23.4477741,15.4281759 23.4512385,15.4287667 23.4512385,15.4287667 L23.4512385,17.3350121 L22.4740375,17.3350121 C21.5112407,17.3350121 21.2109179,17.9325144 21.2109179,18.5453364 L21.2109179,20.0000143 L23.3602963,20.0000143 L23.0165472,22.2403349 L21.2109179,22.2403349 L21.2109179,26.9999976 L25.4999702,26.9999976 C26.3279712,26.9999976 26.9999666,26.3280021 26.9999666,25.5000012 L26.9999666,14.500031 C26.9999666,13.6720265 26.3279712,13.000031 25.4999702,13.000031 L14.5,13.000031 C13.6719955,13.000031 13,13.6720265 13,14.500031 L13,25.5000012 C13,26.3280021 13.6719955,26.9999976 14.5,26.9999976 L18.7890487,26.9999976 Z" id="facebook-square" fill-rule="nonzero"></path>
                </g>
            </g>
        </g>
    </g>
</svg>