<?xml version="1.0" encoding="UTF-8"?>
<svg width="40px" height="40px" viewBox="0 0 40 40" version="1.1" xmlns="http://www.w3.org/2000/svg" xmlns:xlink="http://www.w3.org/1999/xlink">
    <title>inst</title>
    <g id="Symbols" stroke="none" stroke-width="1" fill="none" fill-rule="evenodd">
        <g id="subscription-+-socials" transform="translate(-835.000000, -229.000000)" fill="#ffffff">
            <g id="inst" transform="translate(835.000000, 229.000000)">
                <rect id="Rectangle" stroke="#FFFFFF" fill-opacity="0" x="0.5" y="0.5" width="39" height="39" rx="19.5"></rect>
                <path d="M17.1101951,13.0492324 C18.2658009,12.9835892 21.7295071,12.9835892 22.8851128,13.0492324 C24.006375,13.1054761 24.9995652,13.3617316 25.8178651,14.1804553 C26.639276,14.9992094 26.8953894,15.9929509 26.9484604,17.1148355 C27.0140671,18.2710827 27.0140671,21.7335683 26.9484604,22.8898156 C26.8922478,24.0117001 26.6361345,25.0054417 25.8178651,25.8241958 C24.9995652,26.6460627 24.006375,26.9023182 22.8851128,26.9554492 C21.7295071,27.0210618 18.2658009,27.0210618 17.1101951,26.9554492 C15.9889635,26.8991749 14.9988843,26.64295 14.1774734,25.8241958 C13.3560624,25.0054417 13.0999491,24.0117001 13.0468476,22.8898156 C12.9812714,21.7335683 12.9812714,18.2679699 13.0468476,17.1117227 C13.1030601,15.9898381 13.3560624,14.9960966 14.1774734,14.1773425 C14.9988843,13.3585883 15.9920745,13.1023328 17.1101951,13.0492324 Z M23.7346453,17.1023233 C24.1968815,17.1023233 24.5716726,16.7304675 24.5716726,16.2648314 C24.5716726,15.8023386 24.1968815,15.4273395 23.7346453,15.4273395 C23.2724091,15.4273395 22.8976181,15.8023386 22.8976181,16.2648314 C22.8976181,16.7273242 23.2692676,17.1023233 23.7346453,17.1023233 Z M19.9992095,23.5929389 C21.9856204,23.5929389 23.5878461,21.9898238 23.5878461,20.0023408 C23.5878461,18.0148272 21.9856204,16.4117121 19.9992095,16.4117121 C18.0128291,16.4117121 16.4106034,18.0148272 16.4106034,20.0023408 C16.4106034,21.9898238 18.0128291,23.5929389 19.9992095,23.5929389 Z M19.9992095,22.3366858 C18.7155623,22.3366858 17.6661596,21.2898133 17.6661596,20.0023408 C17.6661596,18.7148378 18.7124513,17.6679653 19.9992095,17.6679653 C21.2859982,17.6679653 22.3322899,18.7148378 22.3322899,20.0023408 C22.3322899,21.2898133 21.2828872,22.3366858 19.9992095,22.3366858 Z" id="Instagram" fill-rule="nonzero"></path>
            </g>
        </g>
    </g>
</svg>