<svg width="40" height="40" xmlns="http://www.w3.org/2000/svg"><g id="Symbols" stroke="none" stroke-width="1" fill="none" fill-rule="evenodd"><g id="subscription-+-socials" transform="translate(-835 -229)" fill="#fff"><g id="inst" transform="translate(835 229)"><rect id="Rectangle" stroke="#FFF" fill-opacity="0" x=".5" y=".5" width="39" height="39" rx="19.5"/><path d="M17.11 13.05c1.156-.066 4.62-.066 5.775 0 1.121.055 2.115.312 2.933 1.13.821.82 1.077 1.813 1.13 2.935.066 1.156.066 4.619 0 5.775-.056 1.122-.312 2.115-1.13 2.934-.818.822-1.812 1.078-2.933 1.131-1.155.066-4.62.066-5.775 0-1.121-.056-2.111-.312-2.933-1.13-.82-.82-1.077-1.813-1.13-2.935-.066-1.156-.066-4.622 0-5.778.056-1.122.31-2.116 1.13-2.935.822-.818 1.815-1.075 2.933-1.128Zm6.625 4.052a.837.837 0 1 0 0-1.675.837.837 0 0 0 0 1.675Zm-3.736 6.49a3.584 3.584 0 0 0 3.589-3.59 3.584 3.584 0 0 0-3.589-3.59 3.584 3.584 0 0 0-3.588 3.59 3.584 3.584 0 0 0 3.588 3.59Zm0-1.255a2.338 2.338 0 0 1-2.333-2.335A2.336 2.336 0 0 1 20 17.668a2.336 2.336 0 0 1 2.333 2.334A2.338 2.338 0 0 1 20 22.337Z" id="Instagram" fill-rule="nonzero"/></g></g></g></svg>