<svg width="40" height="40" xmlns="http://www.w3.org/2000/svg"><g id="Symbols" stroke="none" stroke-width="1" fill="none" fill-rule="evenodd"><g id="subscription-+-socials" transform="translate(-1000 -229)" fill="#fff"><g id="socials" transform="translate(835 229)"><g id="linkedin" transform="translate(165)"><rect id="Rectangle" stroke="#fff" fill-opacity="0" x=".5" y=".5" width="39" height="39" rx="19.5"/><path d="M26 27c.55 0 1-.453 1-1.01V14.01c0-.557-.45-1.01-1-1.01H13.997c-.55 0-.997.453-.997 1.01v11.98c0 .557.447 1.01.997 1.01H26Zm-9.806-9.594a1.204 1.204 0 1 1 0-2.407 1.204 1.204 0 0 1 0 2.407ZM20.609 25h-2.075v-6.681h1.991v.912h.028c.278-.525.956-1.078 1.966-1.078 2.1 0 2.49 1.385 2.49 3.185V25h-2.075v-3.25c0-.775-.015-1.772-1.078-1.772-1.081 0-1.247.844-1.247 1.716V25Zm-3.375 0h-2.078v-6.681h2.078V25Z" fill-rule="nonzero"/></g></g></g></g></svg>