<svg width="155" height="155" xmlns="http://www.w3.org/2000/svg"><g id="Welcome" stroke="none" stroke-width="1" fill="none" fill-rule="evenodd"><g id="Dimensions---Landing-Page" transform="translate(-773 -3318)" fill="#000"><g id="Into-Dimensions" transform="translate(0 3318)"><g id="Group-43" transform="translate(773)"><path d="M49.194 14.581c2.156-.982 2.695-2.342 1.998-3.871-.706-1.547-2.122-2.014-4.334-1.008l-4.11 1.875 2.244 4.92 4.202-1.916ZM40 10.626l6.395-2.916c3.19-1.454 5.57-.625 6.781 2.029.765 1.677.503 3.399-.689 4.543 1.277-.226 2.16.195 3.025 1.559 1.255 1.922 1.403 2.879 2.42 3.794l.068.147-1.973.899c-.78-.69-1.28-1.931-2.13-3.302-1.173-1.891-1.756-2.048-3.913-1.066l-4.202 1.917 2.69 5.896-1.917.874L40 10.626Z" id="Fill-1"/><path id="Fill-3" d="M59 2.81 70.333 1l.326 1.929-9.251 1.477.763 4.518 8.55-1.365.316 1.868-8.55 1.367.836 4.946 9.351-1.494.326 1.929L61.565 18z"/><path id="Fill-5" d="M83.81 2.66 78 2.153 78.191 0 92 1.207l-.19 2.152L86 2.852 84.745 17l-2.19-.19z"/><path d="M101.318 12.193c2.262.8 3.618.211 4.199-1.358.589-1.589-.105-2.903-2.427-3.725l-4.312-1.526-1.868 5.048 4.408 1.561ZM97.461 3l6.709 2.375c3.345 1.185 4.484 3.428 3.475 6.15-.636 1.72-2.05 2.76-3.727 2.743 1.087.727 1.427 1.64 1.087 3.208-.456 2.234-1.03 3.016-.942 4.373l-.055.151-2.07-.733c-.076-1.033.444-2.26.803-3.822.493-2.157.181-2.674-2.081-3.475l-4.408-1.56-2.242 6.05-2.01-.712L97.461 3Z" id="Fill-7"/><path id="Fill-9" d="M117.348 11 127 17.735l-1.187 1.676-7.877-5.498-2.781 3.93 7.28 5.08-1.15 1.625-7.28-5.08-3.044 4.3 7.962 5.556L117.736 31 108 24.206z"/><path d="m132.489 37.52 3.89-7.183-8.26 2.103 4.37 5.08ZM137.31 28l1.69 1.965L130.878 45l-1.518-1.765 2.083-3.824-5.506-6.4-4.419 1.107L120 32.353 137.31 28Z" id="Fill-11"/><path id="Fill-13" d="m144.993 44.071-2.31-5.16 1.825-.911L150 50.268l-1.825.91-2.31-5.161L133.87 52 133 50.054z"/><path d="M146.973 82.208c-.148 2.364.828 3.474 2.554 3.575 1.747.102 2.855-.927 3.005-3.35l.278-4.506-5.552-.324-.285 4.605ZM155 75.947l-.434 7.009c-.216 3.493-2.118 5.207-5.113 5.032-1.892-.11-3.33-1.147-3.797-2.735-.41 1.233-1.218 1.814-2.875 1.94-2.35.207-3.292-.112-4.614.36l-.167-.01.134-2.162c1.004-.367 2.372-.226 4.028-.333 2.285-.149 2.71-.591 2.855-2.954l.285-4.605-6.655-.39.13-2.099 16.223.947Z" id="Fill-15"/><path id="Fill-17" d="M153 97.064 149.282 108l-1.936-.643 3.036-8.926-4.536-1.506-2.806 8.25-1.877-.623 2.806-8.251-4.966-1.649-3.068 9.023-1.935-.642L137.75 92z"/><path d="m136.908 107.98-1.302 2.017c-2.017-1.217-4.047-.646-5.541 1.67-1.439 2.229-1.265 4.113.34 5.162 3.892 2.54 5.765-8.783 11.664-4.934 2.303 1.503 2.608 4.645.58 7.786-2.037 3.159-5.226 4.22-7.862 2.5l1.269-1.966c1.8.976 3.605.41 4.952-1.68 1.348-2.088 1.187-3.838-.365-4.852-3.63-2.368-5.707 8.845-11.483 5.075-2.443-1.595-2.99-4.745-.726-8.254 2.186-3.386 5.439-4.508 8.474-2.525" id="Fill-19"/><path id="Fill-21" d="M133 131.073 124.577 139l-1.332-1.533 6.874-6.47-3.123-3.592-6.355 5.98-1.292-1.484 6.354-5.98-3.42-3.933-6.95 6.541-1.333-1.532 8.497-7.997z"/><path id="Fill-23" d="m113.144 143.753 4.897-2.511.959 1.788-11.643 5.97-.957-1.788 4.898-2.513L105 132.947l1.845-.947z"/><path id="Fill-25" d="m86.967 151.978 5.786-.651.247 2.126L79.247 155 79 152.873l5.786-.65-1.62-13.976 2.18-.247z"/><path d="M67.083 146.91c-2.367-.33-3.564.502-3.804 2.126-.244 1.643.702 2.772 3.13 3.11l4.51.625.775-5.22-4.61-.642Zm5.652 8.09-7.018-.974c-3.499-.487-5.07-2.42-4.65-5.238.262-1.78 1.422-3.055 3.059-3.368-1.208-.486-1.728-1.298-1.722-2.873-.017-2.24.378-3.101.013-4.39l.023-.157 2.165.3c.287.98.034 2.261.007 3.835-.033 2.171.377 2.607 2.743 2.936l4.612.64.929-6.259 2.104.292L72.735 155Z" id="Fill-27"/><path d="m46.31 137.822-.123 8.545 6.454-5.637-6.331-2.908ZM46.448 149 44 147.876 44.238 130l2.2 1.01-.076 4.553 7.976 3.662 3.462-2.999 2.2 1.01L46.448 149Z" id="Fill-29"/><path id="Fill-31" d="m31.408 140-1.941-1.726 1.735-15.659-8.61 9.552L21 130.752 31.593 119l1.911 1.699-1.758 15.775 8.677-9.626L42 128.25z"/><path d="m24.338 118.302-1.282-2.03c1.96-1.32 2.302-3.404.83-5.732-1.417-2.24-3.202-2.871-4.835-1.852-3.956 2.473 5.538 8.915-.46 12.66-2.341 1.463-5.326.425-7.322-2.733-2.006-3.173-1.62-6.515 1.06-8.188l1.249 1.975c-1.65 1.227-1.899 3.104-.571 5.203 1.327 2.098 2.985 2.685 4.564 1.7 3.69-2.305-5.62-8.889.254-12.556 2.485-1.55 5.58-.73 7.81 2.798 2.151 3.404 1.79 6.827-1.297 8.755" id="Fill-33"/><path id="Fill-35" d="M5.52 106 2 94.937l1.885-.587 2.87 9.018 4.624-1.441-2.65-8.332L10.633 93l2.65 8.332 7.066-2.204.65 2.044z"/><path d="M8.125 73.353c-3.765.122-6.16 2.631-6.049 6.288.114 3.72 2.66 6.113 6.426 5.99 3.996-.128 6.535-2.686 6.422-6.407-.113-3.655-2.803-6-6.799-5.871m.554 14.641c-4.98.162-8.518-3.19-8.674-8.286-.154-5.034 3.173-8.542 8.153-8.702 5.084-.165 8.682 3.118 8.837 8.15.156 5.097-3.232 8.674-8.316 8.838" id="Fill-37"/><path d="M10.132 58.352c.623-2.293-.108-3.57-1.778-4-1.69-.434-2.984.365-3.622 2.715l-1.185 4.37 5.371 1.38 1.214-4.465ZM1 62.962l1.846-6.8c.92-3.388 3.13-4.706 6.028-3.96 1.83.471 3.03 1.764 3.163 3.412.652-1.132 1.562-1.547 3.21-1.353 2.344.247 3.201.74 4.592.53l.161.043-.568 2.096c-1.058.168-2.37-.233-4.014-.446-2.267-.29-2.772.062-3.395 2.355l-1.212 4.466 6.44 1.658L16.697 67 1 62.962Z" id="Fill-39"/><path id="Fill-41" d="m8 43.27 1.828-2.877 14.167 2.572-8.122-12.086L17.701 28 31 36.732l-1.157 1.82L18.83 31.32l7.919 12.102-1.21 1.906-14.108-2.36 11.013 7.23L21.3 52z"/></g></g></g></g></svg>