<?xml version="1.0" encoding="UTF-8"?>
<svg width="40px" height="40px" viewBox="0 0 40 40" version="1.1" xmlns="http://www.w3.org/2000/svg" xmlns:xlink="http://www.w3.org/1999/xlink">
    <title>tw</title>
    <g id="Symbols" stroke="none" stroke-width="1" fill="none" fill-rule="evenodd">
        <g id="subscription-+-socials" transform="translate(-945.000000, -229.000000)" fill="#ffffff">
            <g id="socials" transform="translate(835.000000, 229.000000)">
                <g id="tw" transform="translate(110.000000, 0.000000)">
                    <rect id="Rectangle" stroke="#ffffff" fill-opacity="0" x="0.5" y="0.5" width="39" height="39" rx="19.5"></rect>
                    <path d="M17.350263,27 C23.75768,27 27.2633791,21.6187306 27.2633791,16.9484473 C27.2633791,16.7953346 27.2633791,16.6421561 27.2525816,16.4890434 C27.9321458,15.9859118 28.5254594,15.3624797 29,14.6625076 C28.3743911,14.9359208 27.6948269,15.132827 26.9936676,15.2093669 C27.7163571,14.7718926 28.2664805,14.0828361 28.5253945,13.2624977 C27.856563,13.6671927 27.1015133,13.9625027 26.3141034,14.1156154 C25.6776321,13.4265588 24.7715789,13 23.7683802,13 C21.8375658,13 20.2842437,14.5859348 20.2842437,16.532804 C20.2842437,16.8062501 20.3166039,17.0796633 20.3705268,17.3421611 C17.4797038,17.1890155 14.9016205,15.7890385 13.1865299,13.645296 C12.8844581,14.1702915 12.7119244,14.7718597 12.7119244,15.4281041 C12.7119244,16.6531045 13.3267358,17.7359077 14.2651816,18.3702882 C13.693528,18.3484572 13.1541372,18.1843961 12.6903293,17.9218984 L12.6903293,17.9656261 C12.6903293,19.6828098 13.8876892,21.1046506 15.4841365,21.4328056 C15.1929271,21.5093456 14.8800903,21.5531061 14.5672858,21.5531061 C14.340732,21.5531061 14.1250081,21.5312423 13.9092518,21.4984301 C14.3515295,22.8984399 15.6351724,23.9156187 17.1668994,23.9484638 C15.9695395,24.9000181 14.4701403,25.4578258 12.8413652,25.4578258 C12.5501234,25.4578258 12.2804767,25.4468774 12,25.4140981 C13.5425245,26.4202956 15.3762584,27 17.350263,27 Z" id="twitter" fill-rule="nonzero"></path>
                </g>
            </g>
        </g>
    </g>
</svg>